<svg xmlns="http://www.w3.org/2000/svg" xmlns:xlink="http://www.w3.org/1999/xlink" width="300" zoomAndPan="magnify" viewBox="0 0 224.87999 225" height="300" preserveAspectRatio="xMidYMid meet" version="1.0"><defs><clipPath id="737d58c5c3"><path d="M 1.902344 1.960938 L 223 1.960938 L 223 223.09375 L 1.902344 223.09375 Z M 1.902344 1.960938 " clip-rule="nonzero"/></clipPath></defs><g clip-path="url(#737d58c5c3)"><path fill="#2144e1" d="M 190.601562 34.335938 C 169.722656 13.460938 141.964844 1.960938 112.4375 1.960938 C 82.914062 1.960938 55.15625 13.460938 34.277344 34.335938 C 13.398438 55.214844 1.902344 82.972656 1.902344 112.5 C 1.902344 142.023438 13.398438 169.78125 34.277344 190.660156 C 55.15625 211.535156 82.914062 223.035156 112.4375 223.035156 C 141.964844 223.035156 169.722656 211.535156 190.601562 190.660156 C 211.480469 169.785156 222.976562 142.023438 222.976562 112.5 C 222.976562 82.972656 211.476562 55.214844 190.601562 34.335938 Z M 178.558594 185.414062 L 178.558594 183.246094 C 178.558594 164.042969 162.988281 148.472656 143.78125 148.472656 L 83.503906 148.472656 C 64.300781 148.472656 48.726562 164.042969 48.726562 183.246094 L 48.726562 187.527344 C 27.472656 169.449219 13.960938 142.523438 13.960938 112.5 C 13.960938 58.195312 58.136719 14.019531 112.4375 14.019531 C 166.742188 14.019531 210.917969 58.195312 210.917969 112.5 C 210.917969 141.375 198.421875 167.386719 178.558594 185.414062 Z M 178.558594 185.414062 " fill-opacity="1" fill-rule="nonzero"/></g><path fill="#2144e1" d="M 152.429688 99.03125 C 152.429688 100.347656 152.367188 101.660156 152.238281 102.972656 C 152.109375 104.28125 151.914062 105.582031 151.660156 106.875 C 151.402344 108.164062 151.082031 109.441406 150.699219 110.699219 C 150.316406 111.960938 149.875 113.199219 149.371094 114.414062 C 148.867188 115.628906 148.304688 116.820312 147.683594 117.980469 C 147.0625 119.140625 146.386719 120.269531 145.65625 121.363281 C 144.925781 122.457031 144.140625 123.511719 143.308594 124.53125 C 142.472656 125.546875 141.589844 126.523438 140.65625 127.453125 C 139.726562 128.382812 138.753906 129.265625 137.734375 130.101562 C 136.71875 130.9375 135.660156 131.722656 134.566406 132.453125 C 133.472656 133.183594 132.34375 133.859375 131.183594 134.480469 C 130.023438 135.101562 128.835938 135.664062 127.617188 136.167969 C 126.402344 136.671875 125.164062 137.113281 123.902344 137.496094 C 122.644531 137.878906 121.367188 138.195312 120.078125 138.453125 C 118.785156 138.710938 117.484375 138.902344 116.175781 139.03125 C 114.867188 139.160156 113.550781 139.226562 112.234375 139.226562 C 110.917969 139.226562 109.605469 139.160156 108.296875 139.03125 C 106.988281 138.902344 105.6875 138.710938 104.394531 138.453125 C 103.105469 138.195312 101.828125 137.878906 100.570312 137.496094 C 99.308594 137.113281 98.070312 136.671875 96.855469 136.167969 C 95.636719 135.664062 94.449219 135.101562 93.289062 134.480469 C 92.128906 133.859375 91 133.183594 89.90625 132.453125 C 88.8125 131.722656 87.753906 130.9375 86.738281 130.101562 C 85.71875 129.265625 84.746094 128.382812 83.816406 127.453125 C 82.882812 126.523438 82 125.546875 81.164062 124.53125 C 80.332031 123.511719 79.546875 122.457031 78.816406 121.363281 C 78.085938 120.269531 77.410156 119.140625 76.789062 117.980469 C 76.167969 116.820312 75.605469 115.628906 75.101562 114.414062 C 74.597656 113.199219 74.15625 111.960938 73.773438 110.699219 C 73.390625 109.441406 73.070312 108.164062 72.8125 106.875 C 72.558594 105.582031 72.363281 104.28125 72.234375 102.972656 C 72.105469 101.660156 72.042969 100.347656 72.042969 99.03125 C 72.042969 97.714844 72.105469 96.402344 72.234375 95.09375 C 72.363281 93.78125 72.558594 92.480469 72.8125 91.191406 C 73.070312 89.898438 73.390625 88.625 73.773438 87.363281 C 74.15625 86.105469 74.597656 84.867188 75.101562 83.648438 C 75.605469 82.433594 76.167969 81.246094 76.789062 80.085938 C 77.410156 78.921875 78.085938 77.796875 78.816406 76.699219 C 79.546875 75.605469 80.332031 74.550781 81.164062 73.53125 C 82 72.515625 82.882812 71.539062 83.816406 70.609375 C 84.746094 69.679688 85.71875 68.796875 86.738281 67.960938 C 87.753906 67.125 88.8125 66.34375 89.90625 65.613281 C 91 64.878906 92.128906 64.203125 93.289062 63.582031 C 94.449219 62.964844 95.636719 62.402344 96.855469 61.898438 C 98.070312 61.394531 99.308594 60.949219 100.570312 60.566406 C 101.828125 60.1875 103.105469 59.867188 104.394531 59.609375 C 105.6875 59.351562 106.988281 59.160156 108.296875 59.03125 C 109.605469 58.902344 110.917969 58.835938 112.234375 58.835938 C 113.550781 58.835938 114.867188 58.902344 116.175781 59.03125 C 117.484375 59.160156 118.785156 59.351562 120.078125 59.609375 C 121.367188 59.867188 122.644531 60.1875 123.902344 60.566406 C 125.164062 60.949219 126.402344 61.394531 127.617188 61.898438 C 128.835938 62.402344 130.023438 62.964844 131.183594 63.582031 C 132.34375 64.203125 133.472656 64.878906 134.566406 65.613281 C 135.660156 66.34375 136.71875 67.125 137.734375 67.960938 C 138.753906 68.796875 139.726562 69.679688 140.65625 70.609375 C 141.589844 71.539062 142.472656 72.515625 143.308594 73.53125 C 144.140625 74.550781 144.925781 75.605469 145.65625 76.699219 C 146.386719 77.796875 147.0625 78.921875 147.683594 80.085938 C 148.304688 81.246094 148.867188 82.433594 149.371094 83.648438 C 149.875 84.867188 150.316406 86.105469 150.699219 87.363281 C 151.082031 88.625 151.402344 89.898438 151.660156 91.191406 C 151.914062 92.480469 152.109375 93.78125 152.238281 95.09375 C 152.367188 96.402344 152.429688 97.714844 152.429688 99.03125 Z M 152.429688 99.03125 " fill-opacity="1" fill-rule="nonzero"/></svg>