<?xml version="1.0" encoding="UTF-8"?>
<svg version="1.1" xmlns="http://www.w3.org/2000/svg" width="1000" height="230">
<path d="M0 0 C330 0 660 0 1000 0 C1000 75.9 1000 151.8 1000 230 C670 230 340 230 0 230 C0 154.1 0 78.2 0 0 Z " fill="#FEFEFE" transform="translate(0,0)"/>
<path d="M0 0 C9.22684069 8.41144547 14.7604237 19.90460259 15.7421875 32.27734375 C15.86693968 39.21495115 15.61816131 45.8259205 13.4375 52.4375 C13.15390625 53.35789063 12.8703125 54.27828125 12.578125 55.2265625 C8.48674165 66.70022451 0.99730522 75.2225049 -9.875 80.5625 C-21.12922393 85.72122066 -32.99662573 87.86671428 -44.97753906 83.52856445 C-47.88740459 82.30036375 -50.59702382 80.85080437 -53.359375 79.3203125 C-54.33745117 78.78035645 -55.31552734 78.24040039 -56.32324219 77.68408203 C-57.06219727 77.27270996 -57.80115234 76.86133789 -58.5625 76.4375 C-58.58231934 77.72962402 -58.60213867 79.02174805 -58.62255859 80.35302734 C-58.69848368 85.13529345 -58.78722078 89.91725005 -58.87988281 94.69921875 C-58.91822685 96.77109681 -58.95307005 98.84304269 -58.984375 100.91503906 C-59.02990809 103.88891887 -59.08792118 106.86232962 -59.1484375 109.8359375 C-59.16576431 111.23131241 -59.16576431 111.23131241 -59.18344116 112.65487671 C-59.20331085 113.51561798 -59.22318054 114.37635925 -59.24365234 115.26318359 C-59.25697601 116.02263275 -59.27029968 116.78208191 -59.2840271 117.56454468 C-59.5625 119.4375 -59.5625 119.4375 -61.5625 121.4375 C-63.86914062 121.69628906 -63.86914062 121.69628906 -66.71875 121.703125 C-67.74097656 121.70570313 -68.76320313 121.70828125 -69.81640625 121.7109375 C-70.88761719 121.70320312 -71.95882812 121.69546875 -73.0625 121.6875 C-74.13371094 121.69523438 -75.20492187 121.70296875 -76.30859375 121.7109375 C-77.33082031 121.70835937 -78.35304688 121.70578125 -79.40625 121.703125 C-80.34662109 121.70086914 -81.28699219 121.69861328 -82.25585938 121.69628906 C-84.5625 121.4375 -84.5625 121.4375 -86.5625 119.4375 C-86.81138897 117.21079159 -86.81138897 117.21079159 -86.80973816 114.38230896 C-86.81393265 113.31240723 -86.81812714 112.24250549 -86.82244873 111.1401825 C-86.81682922 109.9614003 -86.81120972 108.7826181 -86.80541992 107.56811523 C-86.80731827 106.33072601 -86.80921661 105.09333679 -86.81117249 103.81845093 C-86.81424854 100.41976012 -86.80835709 97.02131118 -86.79821944 93.62264895 C-86.78945172 90.07168136 -86.79119613 86.52071803 -86.7915802 82.96974182 C-86.79064308 77.00690513 -86.78195205 71.04411927 -86.76831055 65.08129883 C-86.75257732 58.17847554 -86.74731266 51.27570792 -86.7480461 44.372868 C-86.74865555 37.74244247 -86.74355816 31.11203514 -86.73525429 24.48161507 C-86.73171555 21.65506918 -86.7298902 18.82852973 -86.72936058 16.00198174 C-86.72817344 12.06046439 -86.71847716 8.11899377 -86.70776367 4.17749023 C-86.70844345 2.40628059 -86.70844345 2.40628059 -86.70913696 0.59928894 C-86.70487198 -0.46779297 -86.70060699 -1.53487488 -86.69621277 -2.6342926 C-86.69453692 -3.56731484 -86.69286108 -4.50033709 -86.69113445 -5.46163273 C-86.5625 -7.5625 -86.5625 -7.5625 -85.5625 -8.5625 C-84.21982587 -8.64881874 -82.87275678 -8.66956473 -81.52734375 -8.66015625 C-80.71845703 -8.65693359 -79.90957031 -8.65371094 -79.07617188 -8.65039062 C-78.22603516 -8.64201172 -77.37589844 -8.63363281 -76.5 -8.625 C-75.64599609 -8.62048828 -74.79199219 -8.61597656 -73.91210938 -8.61132812 C-71.79554337 -8.59950373 -69.67901315 -8.58156769 -67.5625 -8.5625 C-65.65105092 -4.86259051 -64.17115021 -1.70132142 -63.5625 2.4375 C-62.61375 1.550625 -61.665 0.66375 -60.6875 -0.25 C-42.97802497 -15.38355139 -17.88353307 -13.7565639 0 0 Z " fill="#2346E1" transform="translate(642.5625,85.5625)"/>
<path d="M0 0 C11.64532061 7.87289281 18.18824354 17.9964797 21.3125 31.75 C21.739903 35.2004573 21.83833878 38.58782991 21.8125 42.0625 C21.80605469 42.97821777 21.79960938 43.89393555 21.79296875 44.83740234 C21.45828838 57.31965922 16.74238278 67.54594432 8.3125 76.75 C-2.22273958 86.11816214 -13.41078666 90.18338342 -27.40234375 90.02734375 C-37.42534399 89.18116894 -45.31959622 84.98800393 -53.6875 79.75 C-53.68527939 80.31154282 -53.68305878 80.87308563 -53.68077087 81.4516449 C-53.65871694 87.27480435 -53.64359295 93.09795201 -53.63256836 98.92114258 C-53.62752692 101.09692873 -53.62069393 103.27271147 -53.61206055 105.44848633 C-53.59998662 108.56853067 -53.59426995 111.68853038 -53.58984375 114.80859375 C-53.58468246 115.78775253 -53.57952118 116.76691132 -53.57420349 117.77574158 C-53.57409019 119.12702904 -53.57409019 119.12702904 -53.57397461 120.50561523 C-53.571754 121.30281479 -53.56953339 122.10001434 -53.56724548 122.92137146 C-53.6875 124.75 -53.6875 124.75 -54.6875 125.75 C-56.45609193 125.84946453 -58.22861451 125.88080217 -60 125.8828125 C-61.07507813 125.88410156 -62.15015625 125.88539063 -63.2578125 125.88671875 C-64.38960937 125.88285156 -65.52140625 125.87898437 -66.6875 125.875 C-68.38519531 125.88080078 -68.38519531 125.88080078 -70.1171875 125.88671875 C-71.19226563 125.88542969 -72.26734375 125.88414062 -73.375 125.8828125 C-74.36886719 125.88168457 -75.36273438 125.88055664 -76.38671875 125.87939453 C-78.6875 125.75 -78.6875 125.75 -79.6875 124.75 C-79.785788 123.09474177 -79.81381976 121.43527328 -79.81448364 119.77709961 C-79.81730347 118.70015839 -79.82012329 117.62321716 -79.82302856 116.51364136 C-79.82100433 115.32191315 -79.8189801 114.13018494 -79.81689453 112.90234375 C-79.81864685 111.65534698 -79.82039917 110.40835022 -79.82220459 109.12356567 C-79.82586289 105.69389396 -79.82498961 102.26428221 -79.8218255 98.8346138 C-79.81930161 95.25294155 -79.82163952 91.67127195 -79.82321167 88.08959961 C-79.82503328 82.07372576 -79.82262728 76.05786417 -79.81787109 70.04199219 C-79.81242849 63.07727673 -79.81419115 56.11259054 -79.8196975 49.14787579 C-79.82422887 43.17846011 -79.82487906 37.20905326 -79.82225883 31.23963642 C-79.82069619 27.6698337 -79.82050193 24.10004476 -79.82379532 20.53024292 C-79.82720825 16.55270237 -79.82248389 12.57519486 -79.81689453 8.59765625 C-79.81993088 6.81006393 -79.81993088 6.81006393 -79.82302856 4.98635864 C-79.82020874 3.90941742 -79.81738892 2.8324762 -79.81448364 1.72290039 C-79.81410662 0.78120499 -79.81372959 -0.16049042 -79.81334114 -1.13072205 C-79.6875 -3.25 -79.6875 -3.25 -78.6875 -4.25 C-75.87862437 -4.45696978 -73.12462434 -4.57445528 -70.3125 -4.625 C-69.14074219 -4.68107422 -69.14074219 -4.68107422 -67.9453125 -4.73828125 C-65.75621575 -4.77201733 -63.82521036 -4.72568354 -61.6875 -4.25 C-58.68937291 -0.9911662 -58.19009544 2.42767924 -57.6875 6.75 C-56.65302734 5.95335938 -56.65302734 5.95335938 -55.59765625 5.140625 C-38.78868249 -7.49492729 -18.73729019 -11.26769477 0 0 Z " fill="#2245E1" transform="translate(91.6875,81.25)"/>
<path d="M0 0 C3.17555775 2.26169145 5.15859904 4.58024928 7.4296875 7.73046875 C8.4196875 8.06046875 9.4096875 8.39046875 10.4296875 8.73046875 C10.4296875 8.07046875 10.4296875 7.41046875 10.4296875 6.73046875 C20.16667951 -1.84484309 30.74278333 -5.22315427 43.5546875 -4.6484375 C51.78965627 -3.84320366 58.59049173 -1.19911984 64.640625 4.52734375 C70.21322872 11.38967671 73.55316528 19.42578263 73.55908203 28.20556641 C73.56171051 29.18404793 73.56171051 29.18404793 73.56439209 30.18229675 C73.56879019 32.33640205 73.56588049 34.49042514 73.5625 36.64453125 C73.56317346 38.14000464 73.56414384 39.63547792 73.56539917 41.13095093 C73.56687324 44.26309248 73.56473031 47.39520551 73.56005859 50.52734375 C73.55435161 54.55046156 73.55764826 58.5735128 73.56363106 62.59662819 C73.56723612 65.68316148 73.56609851 68.76967886 73.56350327 71.85621262 C73.56283435 73.34024437 73.56366118 74.82427756 73.56598282 76.30830765 C73.56850951 78.37696441 73.56466902 80.4455116 73.55908203 82.51416016 C73.55828644 83.69313873 73.55749084 84.87211731 73.55667114 86.08682251 C73.4296875 88.73046875 73.4296875 88.73046875 72.4296875 89.73046875 C70.66109557 89.82993328 68.88857299 89.86127092 67.1171875 89.86328125 C66.04210937 89.86457031 64.96703125 89.86585938 63.859375 89.8671875 C62.72757813 89.86332031 61.59578125 89.85945313 60.4296875 89.85546875 C59.29789062 89.85933594 58.16609375 89.86320312 57 89.8671875 C55.92492187 89.86589844 54.84984375 89.86460937 53.7421875 89.86328125 C52.74832031 89.86215332 51.75445312 89.86102539 50.73046875 89.85986328 C48.4296875 89.73046875 48.4296875 89.73046875 47.4296875 88.73046875 C47.32211261 86.95739762 47.28343033 85.18010314 47.27197266 83.40380859 C47.26171051 82.26527435 47.25144836 81.12674011 47.24087524 79.95370483 C47.23357391 78.7121463 47.22627258 77.47058777 47.21875 76.19140625 C47.19067098 73.58332717 47.16200646 70.97525434 47.1328125 68.3671875 C47.09044044 64.23945521 47.05369206 60.11175995 47.02832031 55.98388672 C47.00324332 52.01117996 46.95478722 48.03889706 46.90625 44.06640625 C46.90299713 42.8369931 46.89974426 41.60757996 46.89639282 40.34091187 C46.78858509 32.80872305 46.42833381 27.29136124 41.4296875 21.35546875 C37.82460291 18.42633752 34.23666403 18.38781763 29.78125 18.453125 C25.77190444 18.92598801 23.65876997 20.27636608 20.4296875 22.73046875 C17.93031468 26.87448245 17.05278041 29.9818434 17.02905273 34.79589844 C17.01571396 35.97021423 17.00237518 37.14453003 16.9886322 38.35443115 C16.98851639 39.60774231 16.98840057 40.86105347 16.98828125 42.15234375 C16.96810556 44.13256163 16.94791969 46.11277948 16.92711735 48.09299088 C16.90151612 50.85397902 16.88893432 53.61496253 16.87670898 56.3760376 C16.85476905 61.2251852 16.82384295 66.07419928 16.77540588 70.92315674 C16.75095459 73.50279373 16.73617294 76.08254332 16.73179626 78.66229248 C16.72160965 79.82399963 16.71142303 80.98570679 16.70092773 82.18261719 C16.69665268 83.2082074 16.69237762 84.23379761 16.68797302 85.29046631 C16.4296875 87.73046875 16.4296875 87.73046875 14.4296875 89.73046875 C12.12304687 89.98925781 12.12304687 89.98925781 9.2734375 89.99609375 C7.74009766 89.99996094 7.74009766 89.99996094 6.17578125 90.00390625 C5.10457031 89.99617188 4.03335938 89.9884375 2.9296875 89.98046875 C1.32287109 89.99207031 1.32287109 89.99207031 -0.31640625 90.00390625 C-1.33863281 90.00132812 -2.36085938 89.99875 -3.4140625 89.99609375 C-4.82461914 89.99270996 -4.82461914 89.99270996 -6.26367188 89.98925781 C-8.5703125 89.73046875 -8.5703125 89.73046875 -10.5703125 87.73046875 C-10.8218689 85.29719543 -10.8218689 85.29719543 -10.82568359 82.19848633 C-10.83264252 81.04000687 -10.83960144 79.8815274 -10.84677124 78.6879425 C-10.84577423 77.42967148 -10.84477722 76.17140045 -10.84375 74.875 C-10.85884647 72.90358722 -10.87396616 70.9321743 -10.89043617 68.96077251 C-10.92822997 64.0926367 -10.94533871 59.22447177 -10.95117188 54.35620117 C-10.9552281 51.6286182 -10.96985391 48.90146077 -10.99551392 46.17399597 C-11.01890686 43.60533734 -11.02634448 41.03647182 -11.01596069 38.46772766 C-11.09262127 31.68070587 -11.42664528 27.21053853 -15.5703125 21.73046875 C-19.32393362 18.30804949 -23.18164924 18.21537672 -28.06640625 18.3828125 C-32.15616627 18.95065749 -34.28707055 20.18428112 -37.5703125 22.73046875 C-40.06537851 26.8770392 -40.94721618 29.98115046 -40.97094727 34.79589844 C-40.98428604 35.97021423 -40.99762482 37.14453003 -41.0113678 38.35443115 C-41.01148361 39.60774231 -41.01159943 40.86105347 -41.01171875 42.15234375 C-41.03189444 44.13256163 -41.05208031 46.11277948 -41.07288265 48.09299088 C-41.09848388 50.85397902 -41.11106568 53.61496253 -41.12329102 56.3760376 C-41.14523095 61.2251852 -41.17615705 66.07419928 -41.22459412 70.92315674 C-41.24904541 73.50279373 -41.26382706 76.08254332 -41.26820374 78.66229248 C-41.27839035 79.82399963 -41.28857697 80.98570679 -41.29907227 82.18261719 C-41.30334732 83.2082074 -41.30762238 84.23379761 -41.31202698 85.29046631 C-41.5703125 87.73046875 -41.5703125 87.73046875 -43.5703125 89.73046875 C-45.87695313 89.98925781 -45.87695313 89.98925781 -48.7265625 89.99609375 C-50.25990234 89.99996094 -50.25990234 89.99996094 -51.82421875 90.00390625 C-52.89542969 89.99617188 -53.96664063 89.9884375 -55.0703125 89.98046875 C-56.67712891 89.99207031 -56.67712891 89.99207031 -58.31640625 90.00390625 C-59.33863281 90.00132812 -60.36085938 89.99875 -61.4140625 89.99609375 C-62.35443359 89.99383789 -63.29480469 89.99158203 -64.26367188 89.98925781 C-66.5703125 89.73046875 -66.5703125 89.73046875 -68.5703125 87.73046875 C-68.76373604 84.90422648 -68.83252461 82.17634453 -68.81323242 79.34936523 C-68.81513077 78.48261169 -68.81702911 77.61585815 -68.81898499 76.72283936 C-68.8226991 73.8489893 -68.81198035 70.97539021 -68.80078125 68.1015625 C-68.79958979 66.11141489 -68.79913621 64.12126672 -68.7993927 62.13111877 C-68.79782678 57.95724983 -68.78952826 53.78346654 -68.77612305 49.60961914 C-68.75912205 44.24687362 -68.75530895 38.88422222 -68.75606823 33.5214529 C-68.75579694 29.41151524 -68.75032248 25.30159834 -68.74306679 21.19166756 C-68.73987431 19.21361511 -68.73791137 17.2355603 -68.73717308 15.25750542 C-68.73501625 12.49902165 -68.72628668 9.74063978 -68.71557617 6.98217773 C-68.71602936 6.15669937 -68.71648254 5.33122101 -68.71694946 4.48072815 C-68.68478686 -1.15505689 -68.68478686 -1.15505689 -67.5703125 -2.26953125 C-66.22763837 -2.35584999 -64.88056928 -2.37659598 -63.53515625 -2.3671875 C-62.72626953 -2.36396484 -61.91738281 -2.36074219 -61.08398438 -2.35742188 C-60.23384766 -2.34904297 -59.38371094 -2.34066406 -58.5078125 -2.33203125 C-57.65380859 -2.32751953 -56.79980469 -2.32300781 -55.91992188 -2.31835938 C-53.80335587 -2.30653498 -51.68682565 -2.28859894 -49.5703125 -2.26953125 C-46.5703125 4.35546875 -46.5703125 4.35546875 -46.5703125 7.73046875 C-45.89226562 7.199375 -45.21421875 6.66828125 -44.515625 6.12109375 C-30.73232787 -4.34046696 -15.90504979 -9.07320591 0 0 Z " fill="#2346E1" transform="translate(363.5703125,79.26953125)"/>
<path d="M0 0 C0.79921875 -0.00773437 1.5984375 -0.01546875 2.421875 -0.0234375 C17.03085748 0.02384076 29.67786063 5.01703602 39.98828125 15.3515625 C43.63707919 19.36253742 46.37128585 23.32345995 48.625 28.25 C48.96144531 28.98089844 49.29789062 29.71179688 49.64453125 30.46484375 C51.72453557 36.02101968 51.89567257 41.50959989 51.9375 47.375 C51.94313965 48.12716797 51.9487793 48.87933594 51.95458984 49.65429688 C51.79745004 61.80999323 47.05218297 73.56983514 38.66015625 82.44140625 C26.47313262 93.27171708 12.50518045 96.66916004 -3.45703125 96.52734375 C-13.53150328 95.81419568 -22.18336327 92.00589342 -30.375 86.25 C-31.01050781 85.81042969 -31.64601562 85.37085938 -32.30078125 84.91796875 C-40.84329958 78.34534378 -46.38687919 67.7051765 -48.375 57.25 C-49.89242798 43.55598665 -48.45854946 30.79720766 -40.125 19.375 C-29.35167322 6.88351335 -16.71471966 -0.16020498 0 0 Z " fill="#2346E1" transform="translate(233.375,74.75)"/>
<path d="M0 0 C9.4805268 7.81806475 16.21066772 17.71127997 18 30 C19.2988563 44.78021036 17.152985 57.87792591 8 70 C-0.65598441 79.63688125 -13.13581776 85.7346706 -26 87 C-41.108393 87.78888761 -54.88144753 84.67555923 -66.9375 75.1875 C-76.53087103 66.00596561 -81.32578651 54.10023677 -82.203125 40.95703125 C-82.40708335 27.27482514 -78.8558855 14.97989517 -69.375 4.75 C-50.76898463 -12.54223185 -20.9491581 -14.6038271 0 0 Z " fill="#2345E1" transform="translate(528,84)"/>
<path d="M0 0 C0.82113281 -0.01224609 1.64226563 -0.02449219 2.48828125 -0.03710938 C14.50797767 -0.06568235 25.11703475 3.98472007 33.9375 12.25390625 C43.62265234 22.58612696 46.36310716 34.23602217 45.98828125 48.01171875 C45.75 51.1875 45.75 51.1875 44.75 52.1875 C42.7556827 52.28155142 40.75800457 52.30493249 38.76147461 52.30102539 C37.48022202 52.30094986 36.19896942 52.30087433 34.87889099 52.30079651 C33.47004152 52.29568909 32.06119244 52.29047309 30.65234375 52.28515625 C29.21887766 52.28329202 27.78541093 52.28186814 26.35194397 52.28086853 C22.57240043 52.27704372 18.7928951 52.26721377 15.0133667 52.25616455 C11.15930702 52.24594963 7.30524118 52.24137074 3.45117188 52.23632812 C-4.11590287 52.22559146 -11.68294609 52.20851549 -19.25 52.1875 C-18.81656107 53.77469588 -18.37157538 55.35874089 -17.921875 56.94140625 C-17.6753418 57.8238501 -17.42880859 58.70629395 -17.17480469 59.61547852 C-15.25665779 64.95013467 -11.89950563 68.14393521 -7.1875 71.125 C0.95044811 74.0056896 9.83889155 72.82781484 17.53515625 69.34765625 C19.6017435 68.26515817 21.57799891 67.09984261 23.5625 65.875 C26.75 64.1875 26.75 64.1875 29.11328125 64.1875 C32.90731928 65.62642405 34.78524343 68.34029942 37.125 71.5 C37.58777344 72.08201172 38.05054688 72.66402344 38.52734375 73.26367188 C41.73263552 77.48795938 41.73263552 77.48795938 41.8046875 80.390625 C37.20790012 88.22218868 25.84632859 91.52855814 17.75 94.1875 C16.63367188 94.55488281 15.51734375 94.92226562 14.3671875 95.30078125 C1.08124722 98.55770182 -11.69608442 95.99324067 -23.5 89.4375 C-35.01484595 82.01928194 -41.57753004 71.52399194 -44.77734375 58.2265625 C-46.98874109 44.0078259 -44.90026876 30.66551013 -36.921875 18.4609375 C-27.84391725 6.11661177 -15.19102045 0.01170341 0 0 Z " fill="#2447E1" transform="translate(946.25,74.8125)"/>
<path d="M0 0 C0.95326172 -0.00539795 1.90652344 -0.0107959 2.88867188 -0.01635742 C13.46395413 0.08826727 22.44892338 1.42816957 31.375 7.3125 C32.261875 7.869375 33.14875 8.42625 34.0625 9 C43.72310519 18.66060519 44.58263995 30.53513329 44.65289307 43.61624146 C44.6488446 44.8385849 44.64479614 46.06092834 44.640625 47.3203125 C44.64253845 48.60815643 44.6444519 49.89600037 44.64642334 51.22286987 C44.64934214 53.92043977 44.64517607 56.61787558 44.63574219 59.31542969 C44.62423384 62.77440855 44.6309983 66.23308084 44.64288712 69.69204903 C44.65182408 73.00566194 44.64558516 76.31919088 44.640625 79.6328125 C44.64467346 80.87539825 44.64872192 82.11798401 44.65289307 83.39822388 C44.64343658 85.11173538 44.64343658 85.11173538 44.63378906 86.85986328 C44.63219788 87.86735626 44.63060669 88.87484924 44.62896729 89.91287231 C44.375 92.3125 44.375 92.3125 42.375 94.3125 C39.4656442 94.45767744 36.655054 94.49880796 33.75 94.4375 C32.94820312 94.42847656 32.14640625 94.41945313 31.3203125 94.41015625 C29.33841477 94.38656223 27.35667019 94.35069065 25.375 94.3125 C24.055 91.3425 22.735 88.3725 21.375 85.3125 C19.6425 86.67375 19.6425 86.67375 17.875 88.0625 C8.55264054 95.04189478 0.04097983 97.32507282 -11.625 96.3125 C-19.98061578 94.37319926 -27.40684632 90.83307562 -32.44921875 83.75 C-37.23054533 75.36874689 -38.27519116 67.10680558 -35.9921875 57.70703125 C-32.98537991 49.83786364 -26.9513522 44.14136664 -19.5625 40.3125 C-8.70051255 36.17658939 6.41600629 36.50665699 17.375 40.3125 C17.13859747 32.19722466 17.13859747 32.19722466 13.375 25.3125 C6.81037215 20.98581347 -1.03553003 21.58969334 -8.625 22.3125 C-12.12510908 23.20235824 -15.44351964 24.25919253 -18.8203125 25.53515625 C-22.03133432 26.42511912 -23.57151501 26.69199322 -26.625 25.3125 C-28.20703125 22.328125 -28.20703125 22.328125 -29.4375 18.5625 C-29.85644531 17.33015625 -30.27539062 16.0978125 -30.70703125 14.828125 C-31.50462007 11.77352953 -31.83360127 9.43555902 -31.625 6.3125 C-21.35186839 1.29538921 -11.29931525 0.03905712 0 0 Z " fill="#2446E1" transform="translate(755.625,74.6875)"/>
<path d="M0 0 C0.85529297 -0.00773437 1.71058594 -0.01546875 2.59179688 -0.0234375 C15.62063643 0.01631487 28.73240822 4.91990822 38.0625 14.25 C38.09513665 18.83544972 35.62437161 21.25612201 32.59765625 24.359375 C32.00855469 24.94203125 31.41945313 25.5246875 30.8125 26.125 C30.23886719 26.73085937 29.66523437 27.33671875 29.07421875 27.9609375 C24.81498426 32.22987412 24.81498426 32.22987412 21.43359375 32.3203125 C18.87149184 31.16377885 16.67178713 29.87217902 14.375 28.25 C7.65791982 23.55368848 2.25392101 23.61989069 -5.9375 24.25 C-12.14150787 25.86420894 -16.47937683 29.95268393 -19.9375 35.25 C-23.1844018 41.76596675 -22.83414494 49.73875513 -21.4375 56.765625 C-19.91609587 61.29526004 -17.52887433 64.18419265 -13.9375 67.25 C-13.298125 67.806875 -12.65875 68.36375 -12 68.9375 C-6.42276584 72.48664901 -0.38973319 73.1866145 6.0625 72.25 C10.82040147 70.53906409 14.85163921 68.46086079 18.4375 64.875 C18.97375 64.33875 19.51 63.8025 20.0625 63.25 C24.76567609 63.84174638 27.41623334 66.89882171 30.75 70 C31.34361328 70.5259375 31.93722656 71.051875 32.54882812 71.59375 C35.80872095 74.59716323 37.82939122 76.58782444 38.0625 81.25 C28.22755558 90.78275339 16.6245204 96.23616711 2.8125 96.625 C-13.26827288 96.16664068 -25.99898761 91.76643555 -37.7109375 80.66796875 C-46.43796505 71.19072304 -49.52416108 60.03418355 -49.4375 47.375 C-49.43250488 46.41190918 -49.42750977 45.44881836 -49.42236328 44.45654297 C-49.14628489 33.17160068 -45.32300696 24.70107762 -37.9375 16.25 C-37.46054687 15.65703125 -36.98359375 15.0640625 -36.4921875 14.453125 C-27.44600147 4.17956699 -13.26655078 -0.11942881 0 0 Z " fill="#2346E1" transform="translate(857.9375,74.75)"/>
<path d="M0 0 C1.53333984 -0.00386719 1.53333984 -0.00386719 3.09765625 -0.0078125 C4.16886719 -0.00007813 5.24007812 0.00765625 6.34375 0.015625 C7.95056641 0.00402344 7.95056641 0.00402344 9.58984375 -0.0078125 C10.61207031 -0.00523438 11.63429688 -0.00265625 12.6875 0 C13.62787109 0.00225586 14.56824219 0.00451172 15.53710938 0.00683594 C17.84375 0.265625 17.84375 0.265625 19.84375 2.265625 C20.09708309 4.07790184 20.09708309 4.07790184 20.10203552 6.31356812 C20.11227753 7.58376549 20.11227753 7.58376549 20.12272644 8.87962341 C20.11889702 10.2760482 20.11889702 10.2760482 20.11499023 11.70068359 C20.12021698 12.6796611 20.12544373 13.65863861 20.13082886 14.6672821 C20.14108877 16.79804246 20.14685271 18.92882802 20.14871025 21.05961227 C20.15236089 24.42988642 20.16905178 27.79986285 20.18946838 31.17007446 C20.24500613 40.75395174 20.27558219 50.33787344 20.30004883 59.921875 C20.31590589 65.77922653 20.3461075 71.63636767 20.38481331 77.49361038 C20.39648194 79.72873326 20.40239382 81.96389375 20.40249443 84.19904709 C20.40268604 87.32351441 20.42092121 90.44740013 20.44311523 93.57177734 C20.43853806 94.49867874 20.43396088 95.42558014 20.429245 96.38056946 C20.47815545 101.30263403 20.47815545 101.30263403 22.17713928 105.85147095 C24.7956522 108.07333393 27.06223841 107.57744129 30.40625 107.390625 C32.54967124 107.28070596 34.697885 107.22562219 36.84375 107.265625 C39.46216871 109.88404371 39.66225937 111.98150265 40.46875 115.578125 C40.85933594 117.27388672 40.85933594 117.27388672 41.2578125 119.00390625 C41.7704939 121.85783271 41.96289675 124.37902407 41.84375 127.265625 C32.13507127 131.42648731 20.94655159 131.96754 10.84375 128.703125 C3.29906871 125.46969016 -2.01332576 120.71804421 -5.46484375 113.2578125 C-7.42244892 107.61725523 -7.30432485 102.08427267 -7.30151367 96.18286133 C-7.30487228 95.17097244 -7.3082309 94.15908356 -7.31169128 93.11653137 C-7.32117925 89.77689381 -7.32314293 86.43730644 -7.32421875 83.09765625 C-7.32743144 80.77788777 -7.33079552 78.45811949 -7.33430481 76.13835144 C-7.34028968 71.28046193 -7.34214523 66.4225902 -7.34155273 61.56469727 C-7.34145083 55.32661 -7.35513507 49.08863584 -7.37232494 42.85057545 C-7.38341445 38.06291678 -7.38547293 33.27528579 -7.38494301 28.48761559 C-7.38612651 26.186618 -7.39056882 23.88561977 -7.39827538 21.58463478 C-7.40801926 18.37640937 -7.40522013 15.16843409 -7.39916992 11.96020508 C-7.40478943 11.00277405 -7.41040894 10.04534302 -7.41619873 9.05889893 C-7.41200424 8.18830338 -7.40780975 7.31770782 -7.40348816 6.42073059 C-7.40403293 5.66213651 -7.40457769 4.90354242 -7.40513897 4.12196064 C-6.81118387 -0.30804692 -3.69033268 0.00885275 0 0 Z " fill="#2548E1" transform="translate(674.15625,40.734375)"/>
<path d="M0 0 C1.01964844 -0.01417969 2.03929687 -0.02835937 3.08984375 -0.04296875 C6.13409667 0.19305086 8.30987643 0.90497005 11.0625 2.1875 C10.53708553 9.9373635 8.50658524 16.8325086 6.0625 24.1875 C4.09216797 24.22617188 4.09216797 24.22617188 2.08203125 24.265625 C0.3463215 24.32191829 -1.3893543 24.37926535 -3.125 24.4375 C-3.98931641 24.45167969 -4.85363281 24.46585938 -5.74414062 24.48046875 C-9.6265228 24.62921902 -12.36600062 24.89755372 -15.86328125 26.671875 C-21.62182552 33.65587219 -21.3896796 42.41630799 -21.4140625 51.0625 C-21.43743179 52.8710144 -21.43743179 52.8710144 -21.46127319 54.71606445 C-21.50854688 58.53987049 -21.53649619 62.36349529 -21.5625 66.1875 C-21.59896602 70.03994347 -21.63948711 73.89228352 -21.68515015 77.74462891 C-21.71243091 80.13616865 -21.73375847 82.52778485 -21.74868774 84.91943359 C-21.76408096 86.5274585 -21.76408096 86.5274585 -21.77978516 88.16796875 C-21.78628082 89.11567139 -21.79277649 90.06337402 -21.79946899 91.03979492 C-21.9375 93.1875 -21.9375 93.1875 -22.9375 94.1875 C-24.70609193 94.28696453 -26.47861451 94.31830217 -28.25 94.3203125 C-29.32507813 94.32160156 -30.40015625 94.32289063 -31.5078125 94.32421875 C-32.63960937 94.32035156 -33.77140625 94.31648438 -34.9375 94.3125 C-36.06929687 94.31636719 -37.20109375 94.32023437 -38.3671875 94.32421875 C-39.44226563 94.32292969 -40.51734375 94.32164062 -41.625 94.3203125 C-42.61886719 94.31918457 -43.61273438 94.31805664 -44.63671875 94.31689453 C-46.9375 94.1875 -46.9375 94.1875 -47.9375 93.1875 C-48.03801875 90.39297729 -48.07365894 87.62313645 -48.06689453 84.828125 C-48.06864685 83.95176392 -48.07039917 83.07540283 -48.07220459 82.17248535 C-48.07662432 79.26080373 -48.07368469 76.3491823 -48.0703125 73.4375 C-48.0709855 71.42350248 -48.0719555 69.40950505 -48.07321167 67.39550781 C-48.07468881 63.16861195 -48.07253358 58.94173717 -48.06787109 54.71484375 C-48.0621738 49.28369468 -48.06545272 43.85259501 -48.07144356 38.42144775 C-48.07504874 34.26090113 -48.07391078 30.10036631 -48.07131577 25.93981934 C-48.07064638 23.93664545 -48.07147533 21.93347051 -48.07379532 19.93029785 C-48.07632115 17.13579448 -48.07248224 14.34137229 -48.06689453 11.546875 C-48.06891876 10.71047485 -48.07094299 9.87407471 -48.07302856 9.0123291 C-48.05176242 3.30176242 -48.05176242 3.30176242 -46.9375 2.1875 C-44.12862437 1.98053022 -41.37462434 1.86304472 -38.5625 1.8125 C-37.39074219 1.75642578 -37.39074219 1.75642578 -36.1953125 1.69921875 C-34.00161075 1.6654117 -32.07697371 1.69660024 -29.9375 2.1875 C-27.97265625 4.53515625 -27.97265625 4.53515625 -26.9375 7.1875 C-26.545625 8.115625 -26.15375 9.04375 -25.75 10 C-25.481875 10.721875 -25.21375 11.44375 -24.9375 12.1875 C-24.525 11.72859375 -24.1125 11.2696875 -23.6875 10.796875 C-16.85658398 3.53902673 -10.00651464 0.06309278 0 0 Z " fill="#2245E1" transform="translate(171.9375,74.8125)"/>
<path d="M0 0 C5.29589051 3.70298594 9.98988332 9.24984529 12 15.3984375 C13.05531783 24.59289411 11.50027225 31.41551718 6.2109375 38.9453125 C1.8744204 43.75685444 -4.35514457 46.69485873 -10.69140625 47.91796875 C-18.04657175 48.22875039 -23.80055786 45.53139893 -29.8125 41.5234375 C-35.54010356 35.95947976 -38.02764612 30.02427831 -38.4375 22.1484375 C-38.27311431 15.03150394 -35.87334746 9.52667869 -31.0625 4.2890625 C-22.38111534 -3.66887344 -10.73654375 -5.56563481 0 0 Z " fill="#FCFCFE" transform="translate(75,100.6015625)"/>
<path d="M0 0 C5.2728262 4.52092499 8.88893688 9.32206969 9.4375 16.3671875 C9.90414398 29.92425192 9.90414398 29.92425192 5.70703125 35.25 C5.19785156 35.77980469 4.68867187 36.30960938 4.1640625 36.85546875 C3.64457031 37.41621094 3.12507812 37.97695312 2.58984375 38.5546875 C-2.72783239 43.67403539 -8.96632105 45.86575019 -16.2734375 46.35546875 C-23.74275964 46.04261756 -29.84954064 42.30782926 -34.8359375 36.91796875 C-40.00895974 30.86205088 -40.40741483 24.09138097 -40.26953125 16.40234375 C-39.46337994 9.80788078 -36.61736413 5.20454928 -31.57421875 0.9453125 C-21.89054497 -5.82525611 -10.01553649 -6.8673304 0 0 Z " fill="#FCFDFE" transform="translate(621.8359375,102.14453125)"/>
<path d="M0 0 C5.72962998 3.77777801 9.92229527 9.62464509 11.77734375 16.171875 C12.68864298 24.20269945 11.79614184 31.09670943 7.77734375 38.171875 C5.27734375 41.109375 5.27734375 41.109375 2.77734375 43.171875 C2.13796875 43.72875 1.49859375 44.285625 0.83984375 44.859375 C-4.75188479 48.41774771 -10.75690155 49.08468743 -17.22265625 48.171875 C-24.96250429 45.622278 -30.6364367 41.24553488 -34.34765625 33.96484375 C-36.54331046 26.95639394 -36.54121592 17.96801298 -34.125 11.01171875 C-27.19112511 -1.24737206 -13.11996389 -5.88040665 0 0 Z " fill="#FCFCFE" transform="translate(508.22265625,99.828125)"/>
<path d="M0 0 C6.63218558 3.92517106 11.32681179 8.20044146 13.6484375 15.70703125 C15.24592127 23.8300855 14.3910387 31.69526689 10.0625 38.8125 C5.42915673 44.1493878 -0.13831495 48.17260866 -7.28125 49.125 C-14.5295002 49.48293828 -20.52277956 47.87532177 -25.984375 42.9765625 C-32.73364881 35.69738703 -33.58252339 28.34570054 -33.30859375 18.73828125 C-32.70065182 12.30689554 -30.66744548 8.30875365 -25.9296875 3.9765625 C-18.6313769 -1.75974804 -8.90417242 -3.54165959 0 0 Z " fill="#FCFCFE" transform="translate(244.9375,99.1875)"/>
<path d="M0 0 C1.1034375 0.00644531 2.206875 0.01289063 3.34375 0.01953125 C6.17226083 0.17005844 8.74692555 0.54545838 11.5 1.1875 C11.8221077 7.22403699 12.06806924 12.01995145 8.5 17.1875 C3.58607793 21.73287791 -0.45444029 22.62454482 -6.984375 22.51953125 C-11.34928418 21.94341746 -12.74190316 20.65280116 -15.5 17.1875 C-16.60585273 14.08655214 -16.94290051 11.45461025 -16.5 8.1875 C-14.87206036 4.83209602 -12.57658501 2.73134191 -9.2265625 1.0390625 C-6.02413181 0.03887641 -3.35095029 -0.04306128 0 0 Z " fill="#F9FAFE" transform="translate(761.5,129.8125)"/>
<path d="M0 0 C3.00745915 2.09047267 4.79272484 4.21447788 6.83203125 7.2734375 C6.83203125 8.5934375 6.83203125 9.9134375 6.83203125 11.2734375 C-5.04796875 11.2734375 -16.92796875 11.2734375 -29.16796875 11.2734375 C-27.88890343 4.87811088 -25.30301094 2.9562404 -20.16796875 -0.7265625 C-13.21945258 -4.05605983 -6.60630172 -3.67451102 0 0 Z " fill="#FAFBFE" transform="translate(958.16796875,97.7265625)"/>
</svg>
