<svg xmlns="http://www.w3.org/2000/svg" xmlns:xlink="http://www.w3.org/1999/xlink" width="500" zoomAndPan="magnify" viewBox="0 0 375 374.999991" height="500" preserveAspectRatio="xMidYMid meet" version="1.0"><defs><clipPath id="fa9fff1549"><path d="M 8.59375 8.070312 L 366.34375 8.070312 L 366.34375 366 L 8.59375 366 Z M 8.59375 8.070312 " clip-rule="nonzero"/></clipPath><clipPath id="1fe11eda31"><path d="M 61 252 L 310 252 L 310 366 L 61 366 Z M 61 252 " clip-rule="nonzero"/></clipPath><clipPath id="bf1598d379"><path d="M 309.429688 317.589844 C 307.347656 319.535156 305.21875 321.433594 303.046875 323.277344 C 300.875 325.121094 298.660156 326.914062 296.402344 328.652344 C 294.144531 330.390625 291.847656 332.074219 289.507812 333.703125 C 287.167969 335.332031 284.792969 336.902344 282.378906 338.417969 C 279.964844 339.933594 277.515625 341.390625 275.035156 342.789062 C 272.550781 344.1875 270.035156 345.523438 267.488281 346.800781 C 264.941406 348.078125 262.363281 349.296875 259.757812 350.449219 C 257.152344 351.605469 254.523438 352.695312 251.863281 353.722656 C 249.207031 354.753906 246.527344 355.714844 243.824219 356.617188 C 241.117188 357.515625 238.394531 358.351562 235.652344 359.121094 C 232.90625 359.890625 230.148438 360.59375 227.371094 361.234375 C 224.59375 361.871094 221.800781 362.441406 218.996094 362.945312 C 216.191406 363.449219 213.375 363.886719 210.550781 364.257812 C 207.726562 364.625 204.890625 364.925781 202.050781 365.160156 C 199.210938 365.394531 196.367188 365.5625 193.519531 365.660156 C 190.671875 365.757812 187.824219 365.785156 184.972656 365.75 C 182.125 365.710938 179.277344 365.601562 176.433594 365.429688 C 173.589844 365.253906 170.75 365.011719 167.917969 364.699219 C 165.085938 364.390625 162.261719 364.011719 159.449219 363.566406 C 156.632812 363.121094 153.832031 362.609375 151.039062 362.03125 C 148.25 361.449219 145.476562 360.804688 142.71875 360.089844 C 139.957031 359.378906 137.21875 358.601562 134.496094 357.757812 C 131.773438 356.914062 129.074219 356.003906 126.394531 355.03125 C 123.714844 354.058594 121.0625 353.023438 118.433594 351.925781 C 115.804688 350.824219 113.203125 349.664062 110.628906 348.4375 C 108.054688 347.214844 105.511719 345.929688 103 344.582031 C 100.488281 343.238281 98.011719 341.832031 95.566406 340.367188 C 93.121094 338.902344 90.714844 337.382812 88.339844 335.800781 C 85.96875 334.222656 83.636719 332.585938 81.34375 330.894531 C 79.050781 329.203125 76.796875 327.460938 74.585938 325.660156 C 72.378906 323.863281 70.210938 322.011719 68.089844 320.109375 C 65.96875 318.207031 63.894531 316.253906 61.863281 314.25 C 63.65625 306.355469 70.359375 283.011719 89.21875 272.402344 C 102.488281 264.910156 127.019531 258.695312 149.027344 255.167969 C 164.984375 252.644531 179.609375 251.53125 187.722656 252.398438 C 193.855469 253.046875 205.769531 252.96875 219.742188 253.78125 C 249.785156 255.574219 289.210938 261.597656 300.285156 288.441406 C 304.183594 297.890625 307.230469 307.605469 309.429688 317.589844 Z M 309.429688 317.589844 " clip-rule="nonzero"/></clipPath><linearGradient x1="120.370908" gradientTransform="matrix(1.429972, 0, 0, 1.430206, 8.650794, 8.21332)" y1="164.532444" x2="126.501323" gradientUnits="userSpaceOnUse" y2="255.655548" id="cb50699a3f"><stop stop-opacity="1" stop-color="rgb(74.113464%, 60.792542%, 91.381836%)" offset="0"/><stop stop-opacity="1" stop-color="rgb(74.021912%, 60.656738%, 91.349792%)" offset="0.0625"/><stop stop-opacity="1" stop-color="rgb(73.83728%, 60.386658%, 91.287231%)" offset="0.125"/><stop stop-opacity="1" stop-color="rgb(73.654175%, 60.118103%, 91.22467%)" offset="0.127242"/><stop stop-opacity="1" stop-color="rgb(73.562622%, 59.983826%, 91.194153%)" offset="0.1875"/><stop stop-opacity="1" stop-color="rgb(73.471069%, 59.848022%, 91.162109%)" offset="0.25"/><stop stop-opacity="1" stop-color="rgb(73.287964%, 59.577942%, 91.099548%)" offset="0.3125"/><stop stop-opacity="1" stop-color="rgb(73.103333%, 59.309387%, 91.036987%)" offset="0.375"/><stop stop-opacity="1" stop-color="rgb(72.920227%, 59.039307%, 90.974426%)" offset="0.4375"/><stop stop-opacity="1" stop-color="rgb(72.737122%, 58.769226%, 90.910339%)" offset="0.5"/><stop stop-opacity="1" stop-color="rgb(72.554016%, 58.499146%, 90.847778%)" offset="0.5625"/><stop stop-opacity="1" stop-color="rgb(72.370911%, 58.230591%, 90.785217%)" offset="0.625"/><stop stop-opacity="1" stop-color="rgb(72.186279%, 57.96051%, 90.722656%)" offset="0.6875"/><stop stop-opacity="1" stop-color="rgb(72.003174%, 57.69043%, 90.660095%)" offset="0.75"/><stop stop-opacity="1" stop-color="rgb(71.820068%, 57.421875%, 90.597534%)" offset="0.8125"/><stop stop-opacity="1" stop-color="rgb(71.636963%, 57.151794%, 90.533447%)" offset="0.872758"/><stop stop-opacity="1" stop-color="rgb(71.54541%, 57.017517%, 90.50293%)" offset="0.875"/><stop stop-opacity="1" stop-color="rgb(71.452332%, 56.881714%, 90.470886%)" offset="0.9375"/><stop stop-opacity="1" stop-color="rgb(71.269226%, 56.611633%, 90.408325%)" offset="1"/></linearGradient><clipPath id="29e264baae"><path d="M 154 197 L 210 197 L 210 289 L 154 289 Z M 154 197 " clip-rule="nonzero"/></clipPath><clipPath id="1c28ced8eb"><path d="M 209.671875 197.503906 C 208.722656 219.074219 209.921875 254.378906 208.601562 266.503906 C 207.285156 278.625 193.570312 289.460938 179.238281 288.359375 C 164.90625 287.257812 158.335938 268.660156 159.09375 262.167969 C 159.851562 255.679688 154.660156 202.914062 154.660156 202.914062 " clip-rule="nonzero"/></clipPath><linearGradient x1="126.808607" gradientTransform="matrix(1.429972, 0, 0, 1.430206, 8.650794, 8.21332)" y1="197.942509" x2="120.554558" gradientUnits="userSpaceOnUse" y2="130.636844" id="202cba3eac"><stop stop-opacity="1" stop-color="rgb(100%, 69.308472%, 70.584106%)" offset="0"/><stop stop-opacity="1" stop-color="rgb(100%, 69.181824%, 70.489502%)" offset="0.03125"/><stop stop-opacity="1" stop-color="rgb(100%, 68.93158%, 70.301819%)" offset="0.052894"/><stop stop-opacity="1" stop-color="rgb(100%, 68.806458%, 70.20874%)" offset="0.0625"/><stop stop-opacity="1" stop-color="rgb(100%, 68.67981%, 70.114136%)" offset="0.09375"/><stop stop-opacity="1" stop-color="rgb(100%, 68.429565%, 69.926453%)" offset="0.125"/><stop stop-opacity="1" stop-color="rgb(100%, 68.177795%, 69.73877%)" offset="0.15625"/><stop stop-opacity="1" stop-color="rgb(100%, 67.927551%, 69.549561%)" offset="0.1875"/><stop stop-opacity="1" stop-color="rgb(100%, 67.675781%, 69.361877%)" offset="0.21875"/><stop stop-opacity="1" stop-color="rgb(100%, 67.425537%, 69.174194%)" offset="0.25"/><stop stop-opacity="1" stop-color="rgb(100%, 67.173767%, 68.986511%)" offset="0.28125"/><stop stop-opacity="1" stop-color="rgb(100%, 66.923523%, 68.798828%)" offset="0.3125"/><stop stop-opacity="1" stop-color="rgb(100%, 66.673279%, 68.611145%)" offset="0.34375"/><stop stop-opacity="1" stop-color="rgb(100%, 66.421509%, 68.423462%)" offset="0.375"/><stop stop-opacity="1" stop-color="rgb(100%, 66.171265%, 68.235779%)" offset="0.40625"/><stop stop-opacity="1" stop-color="rgb(100%, 65.919495%, 68.048096%)" offset="0.4375"/><stop stop-opacity="1" stop-color="rgb(100%, 65.66925%, 67.860413%)" offset="0.46875"/><stop stop-opacity="1" stop-color="rgb(100%, 65.41748%, 67.672729%)" offset="0.5"/><stop stop-opacity="1" stop-color="rgb(100%, 65.167236%, 67.485046%)" offset="0.53125"/><stop stop-opacity="1" stop-color="rgb(100%, 64.915466%, 67.297363%)" offset="0.5625"/><stop stop-opacity="1" stop-color="rgb(100%, 64.665222%, 67.108154%)" offset="0.59375"/><stop stop-opacity="1" stop-color="rgb(100%, 64.413452%, 66.920471%)" offset="0.625"/><stop stop-opacity="1" stop-color="rgb(100%, 64.163208%, 66.732788%)" offset="0.65625"/><stop stop-opacity="1" stop-color="rgb(100%, 63.911438%, 66.545105%)" offset="0.6875"/><stop stop-opacity="1" stop-color="rgb(100%, 63.661194%, 66.357422%)" offset="0.71875"/><stop stop-opacity="1" stop-color="rgb(100%, 63.41095%, 66.169739%)" offset="0.75"/><stop stop-opacity="1" stop-color="rgb(100%, 63.15918%, 65.982056%)" offset="0.78125"/><stop stop-opacity="1" stop-color="rgb(100%, 62.908936%, 65.794373%)" offset="0.8125"/><stop stop-opacity="1" stop-color="rgb(100%, 62.657166%, 65.606689%)" offset="0.84375"/><stop stop-opacity="1" stop-color="rgb(100%, 62.406921%, 65.419006%)" offset="0.875"/><stop stop-opacity="1" stop-color="rgb(100%, 62.155151%, 65.231323%)" offset="0.90625"/><stop stop-opacity="1" stop-color="rgb(100%, 61.904907%, 65.04364%)" offset="0.9375"/><stop stop-opacity="1" stop-color="rgb(100%, 61.653137%, 64.854431%)" offset="0.947106"/><stop stop-opacity="1" stop-color="rgb(100%, 61.528015%, 64.761353%)" offset="0.96875"/><stop stop-opacity="1" stop-color="rgb(100%, 61.402893%, 64.666748%)" offset="1"/></linearGradient><clipPath id="8199e62411"><path d="M 105 102 L 255 102 L 255 230 L 105 230 Z M 105 102 " clip-rule="nonzero"/></clipPath><clipPath id="1f7419727d"><path d="M 139.074219 158.347656 C 91.539062 154.972656 97.605469 99.339844 135.699219 105.410156 C 173.796875 111.480469 220.316406 93.273438 237.171875 110.804688 C 254.027344 128.335938 245.851562 143.511719 245.851562 143.511719 C 245.851562 143.511719 262.066406 144.054688 250.320312 166.109375 C 238.574219 188.160156 226.667969 238.621094 202.253906 228.15625 C 177.84375 217.695312 169.75 205.21875 169.75 205.21875 " clip-rule="nonzero"/></clipPath><linearGradient x1="124.222467" gradientTransform="matrix(1.429972, 0, 0, 1.430206, 8.650794, 8.21332)" y1="53.443641" x2="111.283884" gradientUnits="userSpaceOnUse" y2="167.166256" id="e1607238b4"><stop stop-opacity="1" stop-color="rgb(25.099182%, 17.999268%, 47.799683%)" offset="0"/><stop stop-opacity="1" stop-color="rgb(25.161743%, 18.054199%, 47.827148%)" offset="0.03125"/><stop stop-opacity="1" stop-color="rgb(25.366211%, 18.234253%, 47.917175%)" offset="0.0625"/><stop stop-opacity="1" stop-color="rgb(25.648499%, 18.482971%, 48.040771%)" offset="0.09375"/><stop stop-opacity="1" stop-color="rgb(25.930786%, 18.731689%, 48.164368%)" offset="0.11778"/><stop stop-opacity="1" stop-color="rgb(26.072693%, 18.855286%, 48.226929%)" offset="0.125"/><stop stop-opacity="1" stop-color="rgb(26.213074%, 18.978882%, 48.28949%)" offset="0.15625"/><stop stop-opacity="1" stop-color="rgb(26.495361%, 19.2276%, 48.413086%)" offset="0.1875"/><stop stop-opacity="1" stop-color="rgb(26.777649%, 19.476318%, 48.536682%)" offset="0.21875"/><stop stop-opacity="1" stop-color="rgb(27.058411%, 19.723511%, 48.661804%)" offset="0.25"/><stop stop-opacity="1" stop-color="rgb(27.340698%, 19.972229%, 48.7854%)" offset="0.28125"/><stop stop-opacity="1" stop-color="rgb(27.622986%, 20.220947%, 48.908997%)" offset="0.3125"/><stop stop-opacity="1" stop-color="rgb(27.905273%, 20.46814%, 49.034119%)" offset="0.34375"/><stop stop-opacity="1" stop-color="rgb(28.187561%, 20.716858%, 49.157715%)" offset="0.375"/><stop stop-opacity="1" stop-color="rgb(28.469849%, 20.965576%, 49.281311%)" offset="0.40625"/><stop stop-opacity="1" stop-color="rgb(28.752136%, 21.212769%, 49.406433%)" offset="0.4375"/><stop stop-opacity="1" stop-color="rgb(29.032898%, 21.461487%, 49.530029%)" offset="0.46875"/><stop stop-opacity="1" stop-color="rgb(29.315186%, 21.710205%, 49.653625%)" offset="0.5"/><stop stop-opacity="1" stop-color="rgb(29.597473%, 21.957397%, 49.778748%)" offset="0.53125"/><stop stop-opacity="1" stop-color="rgb(29.879761%, 22.206116%, 49.902344%)" offset="0.5625"/><stop stop-opacity="1" stop-color="rgb(30.162048%, 22.454834%, 50.02594%)" offset="0.59375"/><stop stop-opacity="1" stop-color="rgb(30.444336%, 22.702026%, 50.151062%)" offset="0.625"/><stop stop-opacity="1" stop-color="rgb(30.726624%, 22.950745%, 50.274658%)" offset="0.65625"/><stop stop-opacity="1" stop-color="rgb(31.008911%, 23.199463%, 50.398254%)" offset="0.6875"/><stop stop-opacity="1" stop-color="rgb(31.289673%, 23.448181%, 50.523376%)" offset="0.71875"/><stop stop-opacity="1" stop-color="rgb(31.57196%, 23.695374%, 50.646973%)" offset="0.75"/><stop stop-opacity="1" stop-color="rgb(31.854248%, 23.944092%, 50.770569%)" offset="0.78125"/><stop stop-opacity="1" stop-color="rgb(32.136536%, 24.19281%, 50.895691%)" offset="0.8125"/><stop stop-opacity="1" stop-color="rgb(32.418823%, 24.440002%, 51.019287%)" offset="0.84375"/><stop stop-opacity="1" stop-color="rgb(32.701111%, 24.688721%, 51.144409%)" offset="0.875"/><stop stop-opacity="1" stop-color="rgb(32.983398%, 24.937439%, 51.268005%)" offset="0.88222"/><stop stop-opacity="1" stop-color="rgb(33.123779%, 25.061035%, 51.330566%)" offset="0.90625"/><stop stop-opacity="1" stop-color="rgb(33.26416%, 25.184631%, 51.391602%)" offset="0.9375"/><stop stop-opacity="1" stop-color="rgb(33.546448%, 25.43335%, 51.516724%)" offset="0.96875"/><stop stop-opacity="1" stop-color="rgb(33.828735%, 25.682068%, 51.64032%)" offset="1"/></linearGradient><clipPath id="a7692119b2"><path d="M 128 133 L 247 133 L 247 247 L 128 247 Z M 128 133 " clip-rule="nonzero"/></clipPath><clipPath id="1b884ef574"><path d="M 132.03125 133.824219 C 132.03125 133.824219 126.550781 184.453125 130.203125 213.945312 C 135.59375 257.472656 188.617188 258.785156 217.945312 211.75 C 228.59375 218.429688 249.417969 201.941406 246.679688 186.738281 C 243.941406 171.535156 226.449219 177.109375 223.515625 182.039062 C 221.171875 186.425781 219.179688 190.964844 217.539062 195.65625 C 217.539062 195.65625 219.472656 155.238281 215.296875 149.234375 C 211.121094 143.230469 145.222656 172.925781 132.03125 133.824219 Z M 132.03125 133.824219 " clip-rule="nonzero"/></clipPath><linearGradient x1="120.953094" gradientTransform="matrix(1.429972, 0, 0, 1.430206, 8.650794, 8.21332)" y1="178.162947" x2="128.140066" gradientUnits="userSpaceOnUse" y2="84.73313" id="d6157f5d4e"><stop stop-opacity="1" stop-color="rgb(100%, 77.966309%, 77.064514%)" offset="0"/><stop stop-opacity="1" stop-color="rgb(100%, 77.864075%, 76.98822%)" offset="0.03125"/><stop stop-opacity="1" stop-color="rgb(100%, 77.661133%, 76.835632%)" offset="0.0625"/><stop stop-opacity="1" stop-color="rgb(100%, 77.456665%, 76.683044%)" offset="0.0703286"/><stop stop-opacity="1" stop-color="rgb(100%, 77.355957%, 76.60675%)" offset="0.09375"/><stop stop-opacity="1" stop-color="rgb(100%, 77.253723%, 76.530457%)" offset="0.125"/><stop stop-opacity="1" stop-color="rgb(100%, 77.050781%, 76.379395%)" offset="0.15625"/><stop stop-opacity="1" stop-color="rgb(100%, 76.846313%, 76.226807%)" offset="0.1875"/><stop stop-opacity="1" stop-color="rgb(100%, 76.643372%, 76.074219%)" offset="0.21875"/><stop stop-opacity="1" stop-color="rgb(100%, 76.44043%, 75.921631%)" offset="0.25"/><stop stop-opacity="1" stop-color="rgb(100%, 76.235962%, 75.769043%)" offset="0.28125"/><stop stop-opacity="1" stop-color="rgb(100%, 76.03302%, 75.617981%)" offset="0.3125"/><stop stop-opacity="1" stop-color="rgb(100%, 75.830078%, 75.465393%)" offset="0.34375"/><stop stop-opacity="1" stop-color="rgb(100%, 75.62561%, 75.312805%)" offset="0.375"/><stop stop-opacity="1" stop-color="rgb(100%, 75.422668%, 75.160217%)" offset="0.40625"/><stop stop-opacity="1" stop-color="rgb(100%, 75.218201%, 75.007629%)" offset="0.4375"/><stop stop-opacity="1" stop-color="rgb(100%, 75.015259%, 74.856567%)" offset="0.46875"/><stop stop-opacity="1" stop-color="rgb(100%, 74.812317%, 74.703979%)" offset="0.5"/><stop stop-opacity="1" stop-color="rgb(100%, 74.607849%, 74.551392%)" offset="0.53125"/><stop stop-opacity="1" stop-color="rgb(100%, 74.404907%, 74.398804%)" offset="0.5625"/><stop stop-opacity="1" stop-color="rgb(100%, 74.201965%, 74.246216%)" offset="0.59375"/><stop stop-opacity="1" stop-color="rgb(100%, 73.997498%, 74.093628%)" offset="0.625"/><stop stop-opacity="1" stop-color="rgb(100%, 73.794556%, 73.942566%)" offset="0.65625"/><stop stop-opacity="1" stop-color="rgb(100%, 73.591614%, 73.789978%)" offset="0.6875"/><stop stop-opacity="1" stop-color="rgb(100%, 73.387146%, 73.63739%)" offset="0.71875"/><stop stop-opacity="1" stop-color="rgb(100%, 73.184204%, 73.484802%)" offset="0.75"/><stop stop-opacity="1" stop-color="rgb(100%, 72.981262%, 73.332214%)" offset="0.78125"/><stop stop-opacity="1" stop-color="rgb(100%, 72.776794%, 73.181152%)" offset="0.8125"/><stop stop-opacity="1" stop-color="rgb(100%, 72.573853%, 73.028564%)" offset="0.84375"/><stop stop-opacity="1" stop-color="rgb(100%, 72.369385%, 72.875977%)" offset="0.875"/><stop stop-opacity="1" stop-color="rgb(100%, 72.166443%, 72.723389%)" offset="0.90625"/><stop stop-opacity="1" stop-color="rgb(100%, 71.963501%, 72.570801%)" offset="0.929671"/><stop stop-opacity="1" stop-color="rgb(100%, 71.861267%, 72.496033%)" offset="0.9375"/><stop stop-opacity="1" stop-color="rgb(100%, 71.759033%, 72.419739%)" offset="0.96875"/><stop stop-opacity="1" stop-color="rgb(100%, 71.556091%, 72.267151%)" offset="1"/></linearGradient><clipPath id="0f5be8d73d"><path d="M 0 332.46875 L 47.910156 332.46875 L 47.910156 375 L 0 375 Z M 0 332.46875 " clip-rule="nonzero"/></clipPath></defs><g clip-path="url(#fa9fff1549)"><path fill="#bebee5" d="M 366.144531 186.988281 C 366.144531 189.914062 366.070312 192.839844 365.929688 195.761719 C 365.785156 198.683594 365.570312 201.601562 365.28125 204.511719 C 364.996094 207.425781 364.636719 210.328125 364.210938 213.222656 C 363.78125 216.113281 363.28125 218.996094 362.710938 221.867188 C 362.136719 224.734375 361.496094 227.589844 360.785156 230.429688 C 360.074219 233.265625 359.296875 236.085938 358.445312 238.886719 C 357.597656 241.683594 356.679688 244.460938 355.695312 247.214844 C 354.710938 249.972656 353.65625 252.699219 352.539062 255.402344 C 351.417969 258.105469 350.234375 260.78125 348.980469 263.425781 C 347.730469 266.070312 346.417969 268.683594 345.039062 271.261719 C 343.660156 273.84375 342.21875 276.386719 340.714844 278.898438 C 339.210938 281.40625 337.644531 283.878906 336.019531 286.3125 C 334.394531 288.746094 332.710938 291.136719 330.96875 293.484375 C 329.226562 295.835938 327.425781 298.140625 325.570312 300.402344 C 323.714844 302.664062 321.804688 304.878906 319.839844 307.046875 C 317.875 309.214844 315.859375 311.332031 313.789062 313.402344 C 311.722656 315.472656 309.605469 317.488281 307.4375 319.453125 C 305.269531 321.417969 303.054688 323.328125 300.792969 325.183594 C 298.53125 327.039062 296.226562 328.839844 293.875 330.582031 C 291.527344 332.324219 289.136719 334.011719 286.703125 335.636719 C 284.269531 337.261719 281.800781 338.824219 279.292969 340.328125 C 276.78125 341.835938 274.238281 343.277344 271.65625 344.65625 C 269.078125 346.035156 266.464844 347.347656 263.820312 348.601562 C 261.175781 349.851562 258.503906 351.035156 255.800781 352.15625 C 253.097656 353.277344 250.371094 354.328125 247.613281 355.3125 C 244.859375 356.300781 242.082031 357.21875 239.285156 358.066406 C 236.484375 358.917969 233.667969 359.695312 230.828125 360.40625 C 227.992188 361.117188 225.136719 361.757812 222.269531 362.328125 C 219.398438 362.898438 216.519531 363.402344 213.625 363.828125 C 210.730469 364.257812 207.828125 364.617188 204.917969 364.902344 C 202.007812 365.191406 199.089844 365.40625 196.167969 365.550781 C 193.246094 365.691406 190.324219 365.765625 187.398438 365.765625 C 184.472656 365.765625 181.546875 365.691406 178.625 365.550781 C 175.703125 365.40625 172.789062 365.191406 169.878906 364.902344 C 166.964844 364.617188 164.0625 364.257812 161.167969 363.828125 C 158.277344 363.402344 155.394531 362.898438 152.527344 362.328125 C 149.65625 361.757812 146.804688 361.117188 143.964844 360.40625 C 141.128906 359.695312 138.308594 358.917969 135.511719 358.066406 C 132.710938 357.21875 129.933594 356.300781 127.179688 355.3125 C 124.425781 354.328125 121.695312 353.277344 118.992188 352.15625 C 116.292969 351.035156 113.617188 349.851562 110.972656 348.601562 C 108.328125 347.347656 105.714844 346.035156 103.136719 344.65625 C 100.558594 343.277344 98.011719 341.835938 95.503906 340.328125 C 92.992188 338.824219 90.523438 337.261719 88.089844 335.636719 C 85.660156 334.011719 83.269531 332.324219 80.917969 330.582031 C 78.570312 328.839844 76.261719 327.039062 74 325.183594 C 71.742188 323.328125 69.527344 321.417969 67.359375 319.453125 C 65.191406 317.488281 63.074219 315.472656 61.003906 313.402344 C 58.9375 311.332031 56.917969 309.214844 54.953125 307.046875 C 52.992188 304.878906 51.082031 302.664062 49.222656 300.402344 C 47.367188 298.140625 45.570312 295.835938 43.828125 293.484375 C 42.085938 291.136719 40.398438 288.746094 38.773438 286.3125 C 37.148438 283.878906 35.585938 281.40625 34.082031 278.898438 C 32.578125 276.386719 31.136719 273.84375 29.757812 271.261719 C 28.378906 268.683594 27.0625 266.070312 25.8125 263.425781 C 24.5625 260.78125 23.375 258.105469 22.257812 255.402344 C 21.136719 252.699219 20.085938 249.972656 19.097656 247.214844 C 18.113281 244.460938 17.195312 241.683594 16.347656 238.886719 C 15.5 236.085938 14.71875 233.265625 14.007812 230.429688 C 13.296875 227.589844 12.65625 224.734375 12.085938 221.867188 C 11.515625 218.996094 11.015625 216.113281 10.585938 213.222656 C 10.15625 210.328125 9.796875 207.425781 9.511719 204.511719 C 9.226562 201.601562 9.007812 198.683594 8.867188 195.761719 C 8.722656 192.839844 8.652344 189.914062 8.652344 186.988281 C 8.652344 184.0625 8.722656 181.140625 8.867188 178.21875 C 9.007812 175.292969 9.226562 172.378906 9.511719 169.464844 C 9.796875 166.554688 10.15625 163.652344 10.585938 160.757812 C 11.015625 157.863281 11.515625 154.980469 12.085938 152.113281 C 12.65625 149.242188 13.296875 146.386719 14.007812 143.550781 C 14.71875 140.710938 15.5 137.894531 16.347656 135.09375 C 17.195312 132.292969 18.113281 129.515625 19.097656 126.761719 C 20.085938 124.007812 21.136719 121.277344 22.257812 118.574219 C 23.375 115.871094 24.5625 113.199219 25.8125 110.550781 C 27.0625 107.90625 28.378906 105.296875 29.757812 102.714844 C 31.136719 100.132812 32.578125 97.589844 34.082031 95.078125 C 35.585938 92.570312 37.148438 90.097656 38.773438 87.667969 C 40.398438 85.234375 42.085938 82.84375 43.828125 80.492188 C 45.570312 78.140625 47.367188 75.835938 49.222656 73.574219 C 51.082031 71.3125 52.992188 69.097656 54.953125 66.929688 C 56.917969 64.761719 58.9375 62.644531 61.003906 60.574219 C 63.074219 58.507812 65.191406 56.488281 67.359375 54.523438 C 69.527344 52.558594 71.742188 50.648438 74 48.792969 C 76.261719 46.9375 78.570312 45.136719 80.917969 43.394531 C 83.269531 41.652344 85.660156 39.96875 88.089844 38.34375 C 90.523438 36.71875 92.992188 35.152344 95.503906 33.648438 C 98.011719 32.144531 100.558594 30.703125 103.136719 29.324219 C 105.714844 27.945312 108.328125 26.628906 110.972656 25.378906 C 113.617188 24.125 116.292969 22.941406 118.992188 21.820312 C 121.695312 20.703125 124.425781 19.648438 127.179688 18.664062 C 129.933594 17.679688 132.710938 16.761719 135.511719 15.910156 C 138.308594 15.0625 141.128906 14.28125 143.964844 13.570312 C 146.804688 12.859375 149.65625 12.21875 152.527344 11.648438 C 155.394531 11.078125 158.277344 10.578125 161.167969 10.148438 C 164.0625 9.71875 166.964844 9.359375 169.878906 9.074219 C 172.789062 8.789062 175.703125 8.570312 178.625 8.429688 C 181.546875 8.285156 184.472656 8.214844 187.398438 8.214844 C 190.324219 8.203125 193.25 8.265625 196.175781 8.402344 C 199.101562 8.535156 202.019531 8.742188 204.9375 9.019531 C 207.851562 9.300781 210.757812 9.648438 213.652344 10.070312 C 216.550781 10.492188 219.4375 10.988281 222.308594 11.550781 C 225.183594 12.113281 228.039062 12.75 230.882812 13.453125 C 233.722656 14.160156 236.546875 14.933594 239.351562 15.777344 C 242.152344 16.621094 244.933594 17.535156 247.695312 18.515625 C 250.453125 19.5 253.183594 20.546875 255.890625 21.664062 C 258.597656 22.78125 261.277344 23.960938 263.925781 25.210938 C 266.574219 26.457031 269.191406 27.769531 271.773438 29.148438 C 274.359375 30.527344 276.90625 31.964844 279.421875 33.46875 C 281.933594 34.972656 284.40625 36.535156 286.84375 38.160156 C 289.277344 39.785156 291.671875 41.46875 294.027344 43.210938 C 296.378906 44.957031 298.6875 46.753906 300.953125 48.613281 C 303.214844 50.46875 305.433594 52.378906 307.601562 54.347656 C 309.773438 56.3125 311.894531 58.332031 313.964844 60.402344 C 316.035156 62.472656 318.050781 64.59375 320.019531 66.765625 C 321.984375 68.933594 323.894531 71.152344 325.75 73.414062 C 327.609375 75.679688 329.40625 77.988281 331.148438 80.34375 C 332.894531 82.695312 334.578125 85.089844 336.203125 87.527344 C 337.824219 89.964844 339.390625 92.4375 340.890625 94.953125 C 342.394531 97.464844 343.835938 100.011719 345.210938 102.597656 C 346.589844 105.183594 347.902344 107.800781 349.148438 110.449219 C 350.398438 113.097656 351.578125 115.777344 352.695312 118.484375 C 353.8125 121.191406 354.859375 123.921875 355.839844 126.683594 C 356.824219 129.441406 357.734375 132.222656 358.578125 135.027344 C 359.425781 137.832031 360.199219 140.65625 360.902344 143.496094 C 361.609375 146.339844 362.242188 149.195312 362.808594 152.070312 C 363.371094 154.945312 363.863281 157.828125 364.285156 160.726562 C 364.707031 163.625 365.058594 166.53125 365.335938 169.449219 C 365.613281 172.363281 365.820312 175.28125 365.957031 178.207031 C 366.089844 181.132812 366.152344 184.0625 366.144531 186.988281 Z M 366.144531 186.988281 " fill-opacity="1" fill-rule="nonzero"/></g><g clip-path="url(#1fe11eda31)"><g clip-path="url(#bf1598d379)"><path fill="url(#cb50699a3f)" d="M 61.863281 251.53125 L 61.863281 365.785156 L 309.429688 365.785156 L 309.429688 251.53125 Z M 61.863281 251.53125 " fill-rule="nonzero"/></g></g><path fill="#ffffff" d="M 178.007812 297.480469 C 148.078125 296.554688 147.996094 266.539062 149.027344 255.167969 C 164.984375 252.644531 179.609375 251.53125 187.722656 252.398438 C 193.855469 253.050781 205.769531 252.96875 219.742188 253.78125 C 222.050781 273.894531 211.519531 298.535156 178.007812 297.480469 Z M 178.007812 297.480469 " fill-opacity="1" fill-rule="nonzero"/><g clip-path="url(#29e264baae)"><g clip-path="url(#1c28ced8eb)"><path fill="url(#202cba3eac)" d="M 154.660156 197.503906 L 154.660156 289.460938 L 209.921875 289.460938 L 209.921875 197.503906 Z M 154.660156 197.503906 " fill-rule="nonzero"/></g></g><g clip-path="url(#8199e62411)"><g clip-path="url(#1f7419727d)"><path fill="url(#e1607238b4)" d="M 91.539062 93.273438 L 91.539062 238.621094 L 262.066406 238.621094 L 262.066406 93.273438 Z M 91.539062 93.273438 " fill-rule="nonzero"/></g></g><g clip-path="url(#a7692119b2)"><g clip-path="url(#1b884ef574)"><path fill="url(#d6157f5d4e)" d="M 126.550781 133.824219 L 126.550781 258.785156 L 249.417969 258.785156 L 249.417969 133.824219 Z M 126.550781 133.824219 " fill-rule="nonzero"/></g></g><path stroke-linecap="butt" transform="matrix(1.429972, 0, 0, 1.430206, 8.650793, 8.213322)" fill="none" stroke-linejoin="miter" d="M 102.062765 124.999463 C 102.062765 125.444657 102.040911 125.88712 101.997204 126.329582 C 101.953497 126.772045 101.887936 127.211776 101.800522 127.646045 C 101.715839 128.083045 101.606571 128.511851 101.478182 128.937926 C 101.349792 129.364001 101.199549 129.781882 101.030183 130.19157 C 100.858086 130.601257 100.669599 131.002751 100.459259 131.396051 C 100.25165 131.78662 100.022187 132.168995 99.776334 132.537714 C 99.52775 132.906433 99.265507 133.264226 98.98141 133.605633 C 98.700045 133.94977 98.40229 134.280252 98.088145 134.594345 C 97.774 134.908439 97.446196 135.206145 97.102002 135.487464 C 96.757808 135.768783 96.402688 136.033714 96.031177 136.279527 C 95.662398 136.528071 95.282692 136.754764 94.889327 136.965071 C 94.498695 137.175377 94.097135 137.363833 93.687381 137.533171 C 93.277626 137.705239 92.859676 137.852727 92.433531 137.983827 C 92.007387 138.112196 91.57851 138.218714 91.141438 138.306114 C 90.707099 138.393514 90.267295 138.459064 89.82476 138.502764 C 89.382225 138.546464 88.93969 138.568314 88.494424 138.568314 C 88.051889 138.568314 87.606622 138.546464 87.164087 138.502764 C 86.724284 138.459064 86.28448 138.393514 85.847409 138.306114 C 85.413069 138.218714 84.981461 138.112196 84.558048 137.983827 C 84.131903 137.852727 83.713953 137.705239 83.304198 137.533171 C 82.891712 137.363833 82.490153 137.175377 82.09952 136.965071 C 81.708887 136.754764 81.326449 136.528071 80.95767 136.279527 C 80.588891 136.033714 80.231039 135.768783 79.886845 135.487464 C 79.545383 135.206145 79.214847 134.908439 78.900702 134.594345 C 78.586557 134.280252 78.288802 133.94977 78.007437 133.605633 C 77.726072 133.264226 77.461098 132.906433 77.215245 132.537714 C 76.96666 132.168995 76.739929 131.78662 76.529589 131.396051 C 76.319248 131.002751 76.130761 130.601257 75.961396 130.19157 C 75.79203 129.781882 75.641787 129.364001 75.513397 128.937926 C 75.382276 128.511851 75.27574 128.083045 75.188325 127.646045 C 75.100911 127.211776 75.038082 126.772045 74.994375 126.329582 C 74.950668 125.88712 74.928814 125.444657 74.928814 124.999463 C 74.928814 124.557001 74.950668 124.111807 74.994375 123.669344 C 75.038082 123.226882 75.100911 122.789882 75.188325 122.352882 C 75.27574 121.918613 75.382276 121.487075 75.513397 121.061 C 75.641787 120.637657 75.79203 120.219775 75.961396 119.807356 C 76.130761 119.397669 76.319248 118.996175 76.529589 118.605606 C 76.739929 118.212306 76.96666 117.832663 77.215245 117.461213 C 77.461098 117.092494 77.726072 116.737431 78.007437 116.393294 C 78.288802 116.049156 78.586557 115.721406 78.900702 115.407312 C 79.214847 115.093219 79.545383 114.795512 79.886845 114.511462 C 80.231039 114.230143 80.588891 113.965212 80.95767 113.7194 C 81.326449 113.473587 81.708887 113.244162 82.09952 113.033856 C 82.490153 112.826281 82.891712 112.635093 83.304198 112.465756 C 83.713953 112.296418 84.131903 112.1462 84.558048 112.017831 C 84.981461 111.889462 85.413069 111.780212 85.847409 111.692812 C 86.28448 111.608143 86.724284 111.542593 87.164087 111.498893 C 87.606622 111.455193 88.051889 111.433343 88.494424 111.433343 C 88.93969 111.433343 89.382225 111.455193 89.82476 111.498893 C 90.267295 111.542593 90.707099 111.608143 91.141438 111.692812 C 91.57851 111.780212 92.007387 111.889462 92.433531 112.017831 C 92.859676 112.1462 93.277626 112.296418 93.687381 112.465756 C 94.097135 112.635093 94.498695 112.826281 94.889327 113.033856 C 95.282692 113.244162 95.662398 113.473587 96.031177 113.7194 C 96.402688 113.965212 96.757808 114.230143 97.102002 114.511462 C 97.446196 114.795512 97.774 115.093219 98.088145 115.407312 C 98.40229 115.721406 98.700045 116.049156 98.98141 116.393294 C 99.265507 116.737431 99.52775 117.092494 99.776334 117.461213 C 100.022187 117.832663 100.25165 118.212306 100.459259 118.605606 C 100.669599 118.996175 100.858086 119.397669 101.030183 119.807356 C 101.199549 120.219775 101.349792 120.637657 101.478182 121.061 C 101.606571 121.487075 101.715839 121.918613 101.800522 122.352882 C 101.887936 122.789882 101.953497 123.226882 101.997204 123.669344 C 102.040911 124.111807 102.062765 124.557001 102.062765 124.999463 Z M 102.062765 124.999463 " stroke="#ffffff" stroke-width="2.77" stroke-opacity="1" stroke-miterlimit="10"/><path stroke-linecap="butt" transform="matrix(1.429972, 0, 0, 1.430206, 8.650793, 8.213322)" fill="none" stroke-linejoin="miter" d="M 136.463031 124.999463 C 136.463031 125.286244 136.454836 125.573026 136.435714 125.857076 C 136.416592 126.143857 136.389275 126.427907 136.353763 126.711957 C 136.31552 126.996007 136.271812 127.277326 136.217178 127.558645 C 136.162544 127.839963 136.099715 128.118551 136.02596 128.394407 C 135.954935 128.672995 135.872985 128.94612 135.78557 129.219245 C 135.695424 129.489639 135.597083 129.760032 135.490547 130.024964 C 135.384011 130.289895 135.269279 130.552095 135.146353 130.808833 C 135.023427 131.068301 134.892305 131.322308 134.752989 131.573583 C 134.613672 131.822126 134.46616 132.067939 134.313185 132.308289 C 134.157479 132.548639 133.996308 132.783526 133.826943 133.015683 C 133.654846 133.245108 133.480018 133.471801 133.294262 133.690302 C 133.111238 133.908802 132.92002 134.121839 132.723337 134.329414 C 132.526655 134.536989 132.321778 134.73637 132.111437 134.930289 C 131.901096 135.124208 131.685292 135.312664 131.464025 135.492927 C 131.242757 135.673189 131.013295 135.847989 130.7811 136.014595 C 130.548906 136.17847 130.311248 136.336883 130.068127 136.489833 C 129.825006 136.640052 129.576422 136.784808 129.325106 136.918639 C 129.07379 137.055202 128.81701 137.180839 128.557499 137.301014 C 128.295256 137.418458 128.033013 137.530439 127.765306 137.634227 C 127.4976 137.735283 127.227162 137.828146 126.953992 137.915546 C 126.680823 138.000214 126.407653 138.076689 126.12902 138.144971 C 125.850387 138.213252 125.571753 138.270608 125.287657 138.322502 C 125.006292 138.371664 124.724927 138.412633 124.440831 138.445408 C 124.156734 138.478183 123.869906 138.500033 123.585809 138.513689 C 123.298981 138.527346 123.012153 138.532808 122.728056 138.530077 C 122.441228 138.524614 122.1544 138.513689 121.870303 138.491839 C 121.583475 138.467258 121.299379 138.437214 121.018014 138.396246 C 120.733917 138.358008 120.452552 138.308846 120.171187 138.251489 C 119.892554 138.191402 119.613921 138.125852 119.33802 138.049377 C 119.062118 137.975633 118.788949 137.890964 118.518511 137.798102 C 118.248072 137.705239 117.980366 137.604183 117.715391 137.492202 C 117.450417 137.382952 117.190906 137.265508 116.934126 137.139871 C 116.677346 137.014233 116.423299 136.877671 116.177446 136.735646 C 115.928861 136.593621 115.68574 136.443402 115.445351 136.284989 C 115.207693 136.129308 114.972767 135.962702 114.746036 135.790633 C 114.516574 135.618564 114.295306 135.438302 114.07677 135.252577 C 113.860966 135.066852 113.650626 134.872933 113.445748 134.673552 C 113.240871 134.471439 113.041457 134.266595 112.850238 134.053558 C 112.659019 133.84052 112.475996 133.62202 112.298435 133.398058 C 112.118143 133.174095 111.948778 132.94467 111.784876 132.709783 C 111.623706 132.474895 111.467999 132.234545 111.317756 131.988733 C 111.170244 131.745651 111.030928 131.494376 110.899806 131.24037 C 110.765953 130.989095 110.643027 130.729626 110.525564 130.467426 C 110.410832 130.207957 110.304296 129.943026 110.203223 129.672632 C 110.104882 129.40497 110.014736 129.134576 109.932785 128.85872 C 109.850834 128.585595 109.777079 128.309739 109.71425 128.031151 C 109.648689 127.752563 109.594055 127.471245 109.547616 127.187195 C 109.501177 126.905876 109.462933 126.621826 109.432885 126.337776 C 109.405568 126.053726 109.386446 125.766945 109.375519 125.482895 C 109.364592 125.196113 109.361861 124.909332 109.370056 124.625282 C 109.378251 124.338501 109.394641 124.051719 109.419226 123.767669 C 109.446543 123.483619 109.482055 123.199569 109.525762 122.915519 C 109.56947 122.6342 109.621372 122.352882 109.681469 122.071563 C 109.744298 121.792975 109.812591 121.517119 109.89181 121.241263 C 109.971029 120.965407 110.058443 120.692282 110.156785 120.424619 C 110.252394 120.154225 110.356198 119.889294 110.47093 119.624363 C 110.582929 119.362163 110.703124 119.102694 110.834246 118.848688 C 110.962635 118.594681 111.101952 118.343406 111.246732 118.097594 C 111.391512 117.84905 111.544487 117.6087 111.705657 117.371081 C 111.866827 117.136194 112.033461 116.904037 112.208289 116.677344 C 112.38585 116.45065 112.566142 116.23215 112.757361 116.016381 C 112.945848 115.800612 113.14253 115.593037 113.344676 115.390925 C 113.546821 115.188812 113.75443 114.994894 113.970234 114.803706 C 114.186038 114.61525 114.407306 114.434987 114.631305 114.260187 C 114.858036 114.085387 115.09023 113.91605 115.327888 113.757637 C 115.565546 113.596493 115.805935 113.443543 116.054519 113.298787 C 116.300372 113.154031 116.551688 113.017468 116.805736 112.8891 C 117.062516 112.758 117.322027 112.637825 117.58427 112.525843 C 117.846513 112.413862 118.114219 112.310075 118.384657 112.214481 C 118.652364 112.118887 118.925533 112.031487 119.201435 111.952281 C 119.474605 111.873075 119.753238 111.804793 120.031871 111.741974 C 120.313236 111.681887 120.594601 111.629993 120.875965 111.586293 C 121.160062 111.545324 121.444158 111.509818 121.728255 111.485237 C 122.012352 111.460656 122.29918 111.444268 122.586008 111.436074 C 122.870105 111.430612 123.156933 111.433343 123.443761 111.444268 C 123.727858 111.455193 124.014686 111.474312 124.298782 111.504356 C 124.582879 111.531668 124.866975 111.569906 125.14834 111.619068 C 125.432437 111.665499 125.71107 111.722856 125.989703 111.785675 C 126.268336 111.851225 126.544238 111.924968 126.820139 112.006906 C 127.093309 112.088843 127.363747 112.181706 127.631453 112.280031 C 127.901891 112.381087 128.166866 112.487606 128.426377 112.60505 C 128.68862 112.722493 128.9454 112.8454 129.199448 112.979231 C 129.453495 113.110331 129.70208 113.252356 129.945201 113.399843 C 130.191054 113.550062 130.431443 113.705743 130.666369 113.869618 C 130.901295 114.033493 131.128026 114.202831 131.352025 114.380362 C 131.576024 114.560625 131.79456 114.743619 132.007633 114.937537 C 132.220705 115.128725 132.425582 115.328106 132.624996 115.53295 C 132.82441 115.737794 133.018361 115.9481 133.204116 116.1666 C 133.389872 116.382369 133.567432 116.606331 133.739529 116.835756 C 133.911626 117.06245 134.078259 117.297338 134.233966 117.534956 C 134.392404 117.775306 134.542648 118.018388 134.681964 118.266931 C 134.824013 118.515475 134.957866 118.769481 135.083524 119.026219 C 135.209182 119.282956 135.326645 119.542425 135.435913 119.807356 C 135.545181 120.072288 135.646254 120.33995 135.739131 120.610344 C 135.832009 120.880738 135.916692 121.153863 135.990448 121.43245 C 136.064203 121.708307 136.132496 121.986894 136.189861 122.265482 C 136.372885 123.166794 136.465763 124.079032 136.463031 124.999463 Z M 136.463031 124.999463 " stroke="#ffffff" stroke-width="2.77" stroke-opacity="1" stroke-miterlimit="10"/><path stroke-linecap="butt" transform="matrix(1.429972, 0, 0, 1.430206, 8.650793, 8.213322)" fill="none" stroke-linejoin="miter" d="M 102.106472 124.068107 L 109.331812 124.068107 " stroke="#ffffff" stroke-width="2.77" stroke-opacity="1" stroke-miterlimit="10"/><path stroke-linecap="butt" transform="matrix(1.429972, 0, 0, 1.430206, 8.650793, 8.213322)" fill="none" stroke-linejoin="miter" d="M 136.189861 122.265482 L 148.375964 122.265482 " stroke="#ffffff" stroke-width="2.77" stroke-opacity="1" stroke-miterlimit="10"/><g clip-path="url(#0f5be8d73d)"><path fill="#ffffff" d="M -64.589844 332.46875 L 47.910156 332.46875 L 47.910156 444.96875 L -64.589844 444.96875 Z M -64.589844 332.46875 " fill-opacity="1" fill-rule="nonzero"/></g></svg>