<?xml version="1.0" encoding="UTF-8"?>
<svg version="1.1" xmlns="http://www.w3.org/2000/svg" width="1000" height="230">
<path d="M0 0 C2.8125 2.5625 2.8125 2.5625 5 5 C6.31175986 6.02813611 7.6369893 7.04084432 9 8 C9.4125 7.61328125 9.825 7.2265625 10.25 6.828125 C20.28386064 -2.22026718 31.984065 -5.62240215 45.4375 -4.9375 C53.35153537 -3.78662592 60.86203124 0.04619399 66 6.1875 C73.70500471 17.33156778 74.15608055 29.19893516 74.16796875 42.265625 C74.17129715 43.53597595 74.17462555 44.8063269 74.17805481 46.11517334 C74.18310421 48.79133634 74.18589778 51.46739761 74.18530273 54.14355469 C74.18520059 57.57229031 74.19892064 61.00082128 74.21607494 64.42950821 C74.22984939 67.70820623 74.22928253 70.98690195 74.23046875 74.265625 C74.23765427 75.49686096 74.24483978 76.72809692 74.25224304 77.99664307 C74.24916641 79.13502625 74.24608978 80.27340942 74.24291992 81.44628906 C74.24434494 82.44887756 74.24576996 83.45146606 74.24723816 84.48443604 C74 87 74 87 72 90 C69.47802734 90.34057617 69.47802734 90.34057617 66.3359375 90.29296875 C65.21445312 90.28330078 64.09296875 90.27363281 62.9375 90.26367188 C61.1740625 90.2259668 61.1740625 90.2259668 59.375 90.1875 C57.59996094 90.16719727 57.59996094 90.16719727 55.7890625 90.14648438 C52.85892461 90.11103916 49.92968541 90.06162769 47 90 C45.69856804 87.39713609 45.86112851 85.47467751 45.84228516 82.55981445 C45.83202301 81.42135574 45.82176086 80.28289703 45.81118774 79.10993958 C45.80388641 77.87354233 45.79658508 76.63714508 45.7890625 75.36328125 C45.76098723 72.75845733 45.73232273 70.15363971 45.703125 67.54882812 C45.66074625 63.43208205 45.62397843 59.31537398 45.59863281 55.19848633 C45.57355915 51.23237089 45.52510948 47.26668025 45.4765625 43.30078125 C45.47330963 42.07450516 45.47005676 40.84822906 45.46670532 39.58479309 C45.37675015 33.31743316 45.14022766 28.49179393 42 23 C38.80056809 19.90055033 35.78725439 19.76906097 31.5 19.625 C27.1850604 19.7755885 24.21447087 19.88293734 21 23 C16.4994423 30.06450542 16.41293394 36.19202567 16.42578125 44.43359375 C16.40453438 46.34411278 16.40453438 46.34411278 16.38285828 48.29322815 C16.34816078 51.65491405 16.32968292 55.01583249 16.32006836 58.37762451 C16.30257982 63.1374692 16.25559931 67.89710992 16.21000671 72.65675354 C16.18744738 75.18741202 16.17167203 77.71814139 16.16316223 80.24888611 C16.15612778 81.38419266 16.14909332 82.51949921 16.1418457 83.68920898 C16.13836624 84.6932225 16.13488678 85.69723602 16.13130188 86.73167419 C16 89 16 89 15 90 C13.15840977 90.09959621 11.31303033 90.13080411 9.46875 90.1328125 C8.34855469 90.13410156 7.22835937 90.13539063 6.07421875 90.13671875 C4.89472656 90.13285156 3.71523438 90.12898438 2.5 90.125 C0.73076172 90.13080078 0.73076172 90.13080078 -1.07421875 90.13671875 C-2.19441406 90.13542969 -3.31460938 90.13414062 -4.46875 90.1328125 C-5.50451172 90.13168457 -6.54027344 90.13055664 -7.60742188 90.12939453 C-10 90 -10 90 -11 89 C-11.10736099 87.33474156 -11.14624102 85.66501413 -11.15771484 83.99633789 C-11.16797699 82.92754898 -11.17823914 81.85876007 -11.18881226 80.75758362 C-11.19611359 79.59105759 -11.20341492 78.42453156 -11.2109375 77.22265625 C-11.23902845 74.76496755 -11.26769303 72.30728536 -11.296875 69.84960938 C-11.33799225 65.96574234 -11.374867 62.08199378 -11.40136719 58.19799805 C-11.42913031 54.45595929 -11.47502956 50.71447753 -11.5234375 46.97265625 C-11.52669037 45.8243483 -11.52994324 44.67604034 -11.53329468 43.49293518 C-11.65133511 35.67539383 -12.15990939 27.84786469 -16.9375 21.375 C-21.78843434 19.19702948 -26.76722947 19.38099276 -32 20 C-35.19821921 21.22118307 -35.19821921 21.22118307 -37 24 C-37.66 24 -38.32 24 -39 24 C-41.4554604 30.70631121 -41.33043307 37.25339976 -41.37890625 44.3359375 C-41.39590073 45.6110318 -41.4128952 46.8861261 -41.43040466 48.19985962 C-41.47440415 51.56955688 -41.51078346 54.93913902 -41.54260254 58.30895996 C-41.58852749 63.07754789 -41.64415659 67.84599463 -41.70530701 72.6144104 C-41.737351 75.1506242 -41.76421359 77.6869095 -41.78553772 80.22323608 C-41.79902756 81.36177032 -41.8125174 82.50030457 -41.82641602 83.67333984 C-41.83592789 84.68036957 -41.84543976 85.68739929 -41.85523987 86.72494507 C-42 89 -42 89 -43 90 C-44.84159023 90.09959621 -46.68696967 90.13080411 -48.53125 90.1328125 C-49.65144531 90.13410156 -50.77164062 90.13539063 -51.92578125 90.13671875 C-53.10527344 90.13285156 -54.28476562 90.12898438 -55.5 90.125 C-57.26923828 90.13080078 -57.26923828 90.13080078 -59.07421875 90.13671875 C-60.19441406 90.13542969 -61.31460937 90.13414062 -62.46875 90.1328125 C-63.50451172 90.13168457 -64.54027344 90.13055664 -65.60742188 90.12939453 C-68 90 -68 90 -69 89 C-69.09520906 86.16959328 -69.12553631 83.36365007 -69.11352539 80.53295898 C-69.11367142 79.64523804 -69.11381744 78.75751709 -69.1139679 77.84289551 C-69.11326843 74.89393716 -69.10547448 71.94504113 -69.09765625 68.99609375 C-69.09579219 66.95728083 -69.09436823 64.91846746 -69.09336853 62.87965393 C-69.08954241 57.50215426 -69.07971132 52.12468142 -69.06866455 46.74719238 C-69.05845245 41.26440799 -69.05387134 35.78161928 -69.04882812 30.29882812 C-69.03808914 19.53254027 -69.02101159 8.76627236 -69 -2 C-65.99712912 -3.50143544 -62.916891 -3.26574018 -59.625 -3.3125 C-58.95210938 -3.34150391 -58.27921875 -3.37050781 -57.5859375 -3.40039062 C-54.27000402 -3.44281891 -52.36117098 -3.26217893 -49.6484375 -1.29296875 C-47.94970891 1.06995467 -46.91810663 3.24568011 -46 6 C-45.29875 5.52949219 -44.5975 5.05898437 -43.875 4.57421875 C-30.28260665 -4.34578939 -14.95075775 -9.09126885 0 0 Z " fill="#FEFEFE" transform="translate(364,68)"/>
<path d="M0 0 C0 0.66 0 1.32 0 2 C0.5775 2.22558594 1.155 2.45117188 1.75 2.68359375 C9.45586265 7.19205853 14.24747175 18.00715916 16.6796875 26.32421875 C19.69305282 39.14134111 18.73461676 53.3058548 12.3515625 65 C5.20363535 75.57727948 -4.74267108 84.38777701 -17.30078125 87.5859375 C-31.53987127 89.77022627 -43.63350415 87.16650139 -56 80 C-56.01981934 81.26183105 -56.03963867 82.52366211 -56.06005859 83.82373047 C-56.13598765 88.49418492 -56.22472412 93.1643226 -56.31738281 97.83447266 C-56.35572521 99.85784666 -56.39056871 101.88129006 -56.421875 103.90478516 C-56.46741169 106.80917203 -56.52542409 109.71307894 -56.5859375 112.6171875 C-56.60326431 113.97975174 -56.60326431 113.97975174 -56.62094116 115.36984253 C-56.64081085 116.21056305 -56.66068054 117.05128357 -56.68115234 117.91748047 C-56.69447601 118.65916473 -56.70779968 119.400849 -56.7215271 120.16500854 C-57 122 -57 122 -59 124 C-61.41430664 124.24291992 -61.41430664 124.24291992 -64.41015625 124.23046875 C-65.48201172 124.22853516 -66.55386719 124.22660156 -67.65820312 124.22460938 C-68.78162109 124.21236328 -69.90503906 124.20011719 -71.0625 124.1875 C-72.75342773 124.1865332 -72.75342773 124.1865332 -74.47851562 124.18554688 C-82.85986683 124.14013317 -82.85986683 124.14013317 -84 123 C-85.20613784 115.75890866 -85.15344626 108.38267425 -85.16113281 101.06445312 C-85.16609772 99.91528412 -85.17106262 98.76611511 -85.17617798 97.5821228 C-85.19067852 93.81515896 -85.19757677 90.04823705 -85.203125 86.28125 C-85.2088809 83.65474446 -85.21463858 81.02823893 -85.22039795 78.4017334 C-85.22993207 73.61363023 -85.23585362 68.82553605 -85.2388947 64.03742456 C-85.24339493 56.99319799 -85.2610552 49.94916356 -85.2898953 42.90499544 C-85.31406475 36.7892675 -85.32183588 30.67361945 -85.32357025 24.55784607 C-85.3266051 21.95819545 -85.33466141 19.35854581 -85.34775543 16.75892639 C-85.36470509 13.13926271 -85.36296426 9.52007726 -85.35644531 5.90039062 C-85.3656601 4.81990448 -85.37487488 3.73941833 -85.3843689 2.62619019 C-85.37879974 1.64502228 -85.37323059 0.66385437 -85.36749268 -0.3470459 C-85.36895924 -1.2023867 -85.3704258 -2.05772751 -85.3719368 -2.93898773 C-85.24919765 -3.61912178 -85.12645851 -4.29925583 -85 -5 C-81.33244001 -7.44503999 -79.42521863 -7.26831152 -75.0625 -7.25 C-73.83660156 -7.25515625 -72.61070313 -7.2603125 -71.34765625 -7.265625 C-66.40821874 -6.87369764 -66.40821874 -6.87369764 -64 -5 C-63.171875 -2.8359375 -63.171875 -2.8359375 -62.75 -0.375 C-62.60046875 0.44226563 -62.4509375 1.25953125 -62.296875 2.1015625 C-62.14992188 3.04128906 -62.14992188 3.04128906 -62 4 C-60.7625 3.1646875 -60.7625 3.1646875 -59.5 2.3125 C-58.94828125 1.94898437 -58.3965625 1.58546875 -57.828125 1.2109375 C-56.59969819 0.39723598 -55.38093539 -0.43122877 -54.171875 -1.2734375 C-37.26656675 -12.61236377 -16.71862384 -10.40269928 0 0 Z M-54.36328125 25.51953125 C-58.35371089 31.56707975 -59.42031781 36.94641937 -58.5625 44.125 C-56.98557612 51.61538844 -53.38428681 56.4093878 -47.3125 60.9375 C-40.86026193 64.95493125 -34.41615333 64.56857176 -27 64 C-20.30423775 62.32605944 -15.82349005 57.55316412 -12 52 C-8.99699614 46.40930133 -7.98410109 41.00139775 -9.57421875 34.73828125 C-12.34724108 25.86167539 -15.90364959 21.62050342 -24 17 C-35.5149723 11.83001244 -46.74693074 16.04930232 -54.36328125 25.51953125 Z " fill="#FEFEFE" transform="translate(96,72)"/>
<path d="M0 0 C11.06055498 11.64515091 13.62222713 25.6269348 13.3125 41.06640625 C12.85095812 51.1914813 9.04438052 59.02866438 3 67 C2.360625 67.886875 1.72125 68.77375 1.0625 69.6875 C-5.89368415 77.48685798 -14.50553096 82.47838042 -25 84 C-37.91628996 84.72142543 -47.44814975 82.98220816 -59 77 C-59.66 77 -60.32 77 -61 77 C-61.33 90.86 -61.66 104.72 -62 119 C-66.00299872 121.00149936 -71.09916731 120.18485209 -75.5 120.1875 C-76.57121094 120.19974609 -77.64242187 120.21199219 -78.74609375 120.22460938 C-79.76832031 120.22654297 -80.79054688 120.22847656 -81.84375 120.23046875 C-82.78412109 120.23457764 -83.72449219 120.23868652 -84.69335938 120.24291992 C-87 120 -87 120 -89 118 C-89.25168228 115.7760849 -89.25168228 115.7760849 -89.25396729 112.95153809 C-89.25960693 111.88308151 -89.26524658 110.81462494 -89.27105713 109.71379089 C-89.26700867 108.53657974 -89.26296021 107.35936859 -89.25878906 106.14648438 C-89.2622937 104.91070145 -89.26579834 103.67491852 -89.26940918 102.40168762 C-89.27671846 99.00706649 -89.27498403 95.6126882 -89.26865101 92.21808052 C-89.26359728 88.67024527 -89.26828071 85.1224206 -89.27142334 81.57458496 C-89.27506482 75.61594778 -89.27025913 69.65736013 -89.26074219 63.69873047 C-89.24985726 56.80385223 -89.25338271 49.90909227 -89.264395 43.0142169 C-89.2734627 37.10080816 -89.27475569 31.18743507 -89.26951766 25.27402163 C-89.2663951 21.73939862 -89.26599641 18.20483125 -89.27259064 14.67021179 C-89.27942551 10.73126608 -89.26995976 6.79245349 -89.25878906 2.85351562 C-89.26283752 1.67630447 -89.26688599 0.49909332 -89.27105713 -0.71379089 C-89.26541748 -1.78224747 -89.25977783 -2.85070404 -89.25396729 -3.95153809 C-89.25321323 -4.88363853 -89.25245918 -5.81573898 -89.25168228 -6.7760849 C-89 -9 -89 -9 -87 -11 C-84.29368306 -11.1720611 -81.7028606 -11.23239017 -79 -11.1875 C-78.26265625 -11.18685547 -77.5253125 -11.18621094 -76.765625 -11.18554688 C-71.28101809 -11.14050904 -71.28101809 -11.14050904 -69 -10 C-68.1484375 -8.15234375 -68.1484375 -8.15234375 -67.375 -5.9375 C-66.98441406 -4.83728516 -66.98441406 -4.83728516 -66.5859375 -3.71484375 C-66.39257812 -3.14894531 -66.19921875 -2.58304688 -66 -2 C-62.58029428 -2.64168391 -60.21976895 -3.99299981 -57.3125 -5.875 C-38.49215086 -17.41630234 -16.36206635 -14.29390117 0 0 Z M-59.1875 21.875 C-62.7918084 28.08932483 -64.10666148 33.88147483 -63 41 C-60.55868613 48.37035441 -57.27447478 54.05910658 -50.421875 57.9453125 C-44.03972922 60.72463405 -38.01240495 61.77935395 -31.23046875 59.8828125 C-23.60553663 56.8648884 -18.53413589 52.39959702 -15 45 C-12.69901148 38.09703443 -13.11989506 30.95693352 -16.3125 24.4375 C-17.89354708 21.54603553 -19.46209624 19.12966187 -22 17 C-22.66 17 -23.32 17 -24 17 C-24 16.34 -24 15.68 -24 15 C-37.30251526 9.61163939 -49.74038733 9.45879478 -59.1875 21.875 Z " fill="#FEFEFE" transform="translate(645,76)"/>
<path d="M0 0 C10.49019365 9.61452161 15.10532306 21.50607614 15.95703125 35.53515625 C16.0908865 46.3287566 13.36899264 54.71013996 8 64 C7.48308594 64.9384375 6.96617187 65.876875 6.43359375 66.84375 C5.72396484 67.91109375 5.72396484 67.91109375 5 69 C4.34 69 3.68 69 3 69 C2.62488281 69.89912109 2.62488281 69.89912109 2.2421875 70.81640625 C-1.83429366 77.98229608 -12.6022619 81.49415349 -20 84 C-34.86269781 87.2685601 -51.17959922 85.57210046 -64.33203125 77.84765625 C-75.30725999 70.24694879 -82.01860055 59.98654626 -85 47 C-86.01163727 36.196838 -86.33340757 24.70993908 -81 15 C-80.21882812 13.57107422 -80.21882812 13.57107422 -79.421875 12.11328125 C-75.98263458 6.31149956 -72.46543096 1.96511658 -67 -2 C-66.34 -2 -65.68 -2 -65 -2 C-65 -2.66 -65 -3.32 -65 -4 C-42.97557411 -14.50040095 -20.08321084 -15.42049269 0 0 Z M-53.81640625 21.09765625 C-58.13798785 28.04356464 -58.97222726 34.88029978 -58 43 C-56.03547001 49.68947647 -52.6692164 55.60880995 -46.625 59.3125 C-40.17409085 62.27218678 -32.2612782 62.18331906 -25.49609375 60.3046875 C-19.40312699 57.55302509 -14.91433912 52.5017598 -12.51171875 46.23828125 C-10.5799419 37.78860084 -11.12347878 29.56614971 -15.51953125 22.0546875 C-19.45745507 16.58938954 -24.4953203 13.60153099 -31 12 C-39.91672263 10.99327325 -48.33076711 13.7472106 -53.81640625 21.09765625 Z " fill="#FEFEFE" transform="translate(270,75)"/>
<path d="M0 0 C1.70543712 1.65042302 3.319799 3.23108196 4.75 5.125 C4.75 5.785 4.75 6.445 4.75 7.125 C5.41 7.125 6.07 7.125 6.75 7.125 C14.90518327 19.81963803 17.55875872 33.85515004 14.5625 48.5625 C13.09403501 54.56343867 10.80629497 59.77346374 7.75 65.125 C7.09 65.125 6.43 65.125 5.75 65.125 C5.48832031 65.70507812 5.22664062 66.28515625 4.95703125 66.8828125 C-0.18841776 76.44102522 -9.74336859 80.35659693 -19.453125 83.9375 C-33.0820642 87.80082135 -49.46778351 85.70041151 -61.9375 79.5 C-71.57079714 73.85050153 -77.71936536 66.24632161 -82.25 56.125 C-82.5903125 55.38121094 -82.930625 54.63742188 -83.28125 53.87109375 C-87.40752644 42.88679304 -86.71743596 28.41959947 -82.45703125 17.640625 C-80.66628759 13.90846022 -78.68149126 10.47418312 -76.25 7.125 C-75.63125 6.25875 -75.0125 5.3925 -74.375 4.5 C-65.73308013 -5.15861632 -54.49020735 -10.15589595 -41.609375 -11.6953125 C-26.5252235 -12.50213921 -11.87700559 -9.89750466 0 0 Z M-53.25 20.125 C-57.97566767 28.02247174 -59.79205288 35.70597266 -57.6015625 44.82421875 C-55.19720188 51.53382338 -51.42317405 57.01002404 -44.953125 60.2890625 C-38.42105493 62.30909573 -30.05171375 62.40253734 -23.75 59.5625 C-18.40909809 56.33045207 -13.81257822 51.23326032 -12.25 45.125 C-10.7898117 37.08687607 -11.07520952 30.23293757 -14.9375 22.9375 C-19.60199113 17.26447025 -23.80219641 13.43163221 -31.25 12.125 C-39.59044551 11.31786011 -47.31953405 14.02509217 -53.25 20.125 Z " fill="#FEFEFE" transform="translate(531.25,74.875)"/>
<path d="M0 0 C10.70452646 9.28411814 15.0455147 21.76697889 16.28515625 35.59375 C16.34375 38.01171875 16.34375 38.01171875 16.03125 41.76171875 C14.03125 43.76171875 14.03125 43.76171875 11.36105347 44.00222778 C10.22854156 43.99778656 9.09602966 43.99334534 7.92919922 43.98876953 C6.64802216 43.98861847 5.36684509 43.98846741 4.04684448 43.98831177 C2.64320726 43.9780977 1.2395716 43.9676657 -0.1640625 43.95703125 C-1.59609785 43.95330166 -3.02813575 43.95045444 -4.46017456 43.94845581 C-8.23153717 43.94081502 -12.00274604 43.92116283 -15.77404785 43.89904785 C-19.62147949 43.87859894 -23.46893594 43.86945615 -27.31640625 43.859375 C-34.86725764 43.83791725 -42.41798229 43.80377607 -49.96875 43.76171875 C-49.68 44.53257813 -49.39125 45.3034375 -49.09375 46.09765625 C-48.7225 47.10054687 -48.35125 48.1034375 -47.96875 49.13671875 C-47.411875 50.63332031 -47.411875 50.63332031 -46.84375 52.16015625 C-45.96875 54.76171875 -45.96875 54.76171875 -45.96875 56.76171875 C-44.48375 57.25671875 -44.48375 57.25671875 -42.96875 57.76171875 C-42.96875 58.42171875 -42.96875 59.08171875 -42.96875 59.76171875 C-41.30890202 60.44518557 -39.64038195 61.1076019 -37.96875 61.76171875 C-36.6384375 62.31859375 -36.6384375 62.31859375 -35.28125 62.88671875 C-23.53770156 65.98878815 -13.64802039 61.58574287 -3.55078125 55.71484375 C-3.02871094 55.4003125 -2.50664063 55.08578125 -1.96875 54.76171875 C-0.27286566 56.40460671 1.38349341 58.07101116 3.03125 59.76171875 C3.74023438 60.47457031 4.44921875 61.18742187 5.1796875 61.921875 C5.91445313 62.69402344 6.64921875 63.46617187 7.40625 64.26171875 C8.11523438 64.99390625 8.82421875 65.72609375 9.5546875 66.48046875 C11.03125 68.76171875 11.03125 68.76171875 10.99609375 71.32421875 C8.46470938 77.71929504 1.00501824 80.98125149 -4.96875 83.57421875 C-19.76774845 89.21900612 -35.17944424 90.00875344 -49.96875 83.76171875 C-53.067523 82.23610248 -56.04733351 80.60364543 -58.96875 78.76171875 C-58.96875 78.10171875 -58.96875 77.44171875 -58.96875 76.76171875 C-59.54625 76.53355469 -60.12375 76.30539063 -60.71875 76.0703125 C-69.26270967 71.10116929 -72.98765574 59.86765852 -75.49707031 50.86669922 C-78.47398576 37.58152064 -75.69665432 23.29707819 -69.34375 11.51171875 C-61.96164573 0.16173344 -51.59566369 -5.69214646 -38.59375 -8.61328125 C-25.12952078 -10.62807238 -11.13132016 -8.00567772 0 0 Z M-46.96875 21.76171875 C-47.29875 23.08171875 -47.62875 24.40171875 -47.96875 25.76171875 C-36.08875 25.76171875 -24.20875 25.76171875 -11.96875 25.76171875 C-14.0245436 19.59433795 -15.65041224 16.69741578 -21.21875 13.44921875 C-31.63287949 10.84568638 -40.14954895 13.61194189 -46.96875 21.76171875 Z " fill="#FEFEFE" transform="translate(976.96875,72.23828125)"/>
<path d="M0 0 C5.0523737 4.88868989 7.98031316 9.26771055 10 16 C10.18553436 16.60524002 10.37106873 17.21048004 10.56222534 17.83406067 C11.14531948 20.71898444 11.12734536 23.46152973 11.12939453 26.4050293 C11.13254669 27.70284836 11.13569885 29.00066742 11.13894653 30.33781433 C11.13715715 31.74994948 11.1351063 33.16208433 11.1328125 34.57421875 C11.13348619 36.02342241 11.13445675 37.47262595 11.13571167 38.92182922 C11.13718419 41.95383789 11.13504747 44.98581704 11.13037109 48.01782227 C11.12465877 51.91199673 11.12796509 55.8061025 11.13394356 59.70027447 C11.13754819 62.68987043 11.13641131 65.67944996 11.13381577 68.6690464 C11.13314701 70.10562969 11.13397312 71.54221444 11.13629532 72.97879601 C11.13882184 74.9802485 11.13429136 76.9817062 11.12939453 78.9831543 C11.12859894 80.12358688 11.12780334 81.26401947 11.12698364 82.43901062 C11 85 11 85 10 86 C7.02722679 86.18025762 4.09984744 86.27812195 1.125 86.3125 C-0.11830078 86.35600586 -0.11830078 86.35600586 -1.38671875 86.40039062 C-7.48938667 86.46447357 -7.48938667 86.46447357 -9.9453125 84.23046875 C-10.29335938 83.49441406 -10.64140625 82.75835937 -11 82 C-11.391875 81.2575 -11.78375 80.515 -12.1875 79.75 C-12.455625 79.1725 -12.72375 78.595 -13 78 C-13.50789062 78.39832031 -14.01578125 78.79664063 -14.5390625 79.20703125 C-25.26554944 87.46281052 -33.80950085 88.66017219 -47 88 C-55.08578481 86.93515714 -60.7185029 81.98443017 -66 76 C-70.64641684 68.88364578 -71.7104191 61.07995728 -70.25 52.8125 C-68.19123672 44.19225892 -64.23844459 39.09734311 -57 34 C-44.13434072 27.71132341 -30.69979891 28.03215188 -17 31 C-17.30013415 23.35569703 -17.30013415 23.35569703 -21 17 C-29.18151996 12.44516221 -38.26367576 14.26353185 -47 16 C-48.76371447 16.51789721 -50.51793928 17.07197429 -52.25 17.6875 C-57.04034509 19.36412078 -57.04034509 19.36412078 -60 18 C-61.1953125 15.92578125 -61.1953125 15.92578125 -62.125 13.3125 C-62.45113281 12.40757813 -62.77726563 11.50265625 -63.11328125 10.5703125 C-63.40589844 9.72210938 -63.69851563 8.87390625 -64 8 C-64.433125 6.906875 -64.86625 5.81375 -65.3125 4.6875 C-66.07991038 1.68762305 -65.69205146 -0.02766389 -65 -3 C-62.77155786 -3.6483289 -60.5422154 -4.29356369 -58.3125 -4.9375 C-56.45044922 -5.47697266 -56.45044922 -5.47697266 -54.55078125 -6.02734375 C-37.31916565 -10.74755528 -14.59736078 -11.94329519 0 0 Z M-41.78125 52.4140625 C-43.81727439 55.06350449 -43.52442083 57.54197829 -43.4296875 60.7734375 C-42.74820192 64.30477188 -40.77924698 65.88247849 -38 68 C-34.51706314 69.74146843 -30.80805141 69.44873928 -27 69 C-23.28309692 67.69233238 -20.62601356 65.77208339 -18.125 62.6875 C-16.45469356 58.6973235 -15.74541419 54.93485218 -16.3125 50.625 C-16.88218168 48.78829005 -16.88218168 48.78829005 -19 48 C-21.61860735 47.84887061 -24.19290882 47.76866138 -26.8125 47.75 C-27.88081055 47.7190625 -27.88081055 47.7190625 -28.97070312 47.6875 C-34.61815491 47.64570572 -37.47709012 48.99716365 -41.78125 52.4140625 Z " fill="#FEFDFE" transform="translate(789,72)"/>
<path d="M0 0 C1.15052662 1.13129777 2.25270768 2.31156347 3.33984375 3.50390625 C1.94830631 7.93152539 -0.18087111 10.45953175 -3.66015625 13.50390625 C-4.32015625 13.50390625 -4.98015625 13.50390625 -5.66015625 13.50390625 C-5.66015625 14.16390625 -5.66015625 14.82390625 -5.66015625 15.50390625 C-7.05078125 17.046875 -7.05078125 17.046875 -8.91015625 18.69140625 C-9.5134375 19.24183594 -10.11671875 19.79226562 -10.73828125 20.359375 C-12.66015625 21.50390625 -12.66015625 21.50390625 -14.72265625 21.328125 C-17.21670892 20.26714695 -18.9353778 18.54046044 -20.96484375 16.78125 C-26.14223702 12.88031083 -32.30794322 11.62303296 -38.66015625 12.50390625 C-45.19553359 13.92075563 -50.36086801 17.41394431 -54.66015625 22.50390625 C-57.88584827 28.3187825 -58.58221312 34.97779265 -57.66015625 41.50390625 C-55.4309044 49.04261276 -51.19805493 54.14530713 -44.66015625 58.50390625 C-38.32590785 60.61532238 -30.78157841 60.79293065 -24.5859375 58.234375 C-21.27308973 56.24666634 -18.39320232 54.23695232 -15.66015625 51.50390625 C-11.8092738 51.41354258 -9.80040011 53.04946744 -7.07421875 55.5234375 C-5.8006567 56.77714152 -4.53789359 58.04189331 -3.28515625 59.31640625 C-2.63160156 59.94611328 -1.97804688 60.57582031 -1.3046875 61.22460938 C-0.69238281 61.83884766 -0.08007812 62.45308594 0.55078125 63.0859375 C1.11071777 63.64514893 1.6706543 64.20436035 2.24755859 64.78051758 C3.33984375 66.50390625 3.33984375 66.50390625 3.12573242 68.60620117 C0.79734077 74.22862686 -7.16916993 78.2286937 -12.53515625 80.66015625 C-27.20779934 86.48605866 -43.06319787 86.22776564 -57.81640625 80.6953125 C-63.71903204 78.0602117 -68.98615273 73.92888499 -73.66015625 69.50390625 C-73.66015625 68.84390625 -73.66015625 68.18390625 -73.66015625 67.50390625 C-74.32015625 67.50390625 -74.98015625 67.50390625 -75.66015625 67.50390625 C-84.983403 55.06425389 -87.31832691 40.36404214 -85.19921875 25.20703125 C-82.54428434 13.15050557 -75.99500023 3.54914424 -65.83203125 -3.44140625 C-45.7098567 -15.77268758 -18.27087235 -16.46528026 0 0 Z " fill="#FEFEFE" transform="translate(893.66015625,75.49609375)"/>
<path d="M0 0 C1.12019531 -0.00128906 2.24039063 -0.00257812 3.39453125 -0.00390625 C4.57402344 -0.00003906 5.75351562 0.00382812 6.96875 0.0078125 C8.73798828 0.00201172 8.73798828 0.00201172 10.54296875 -0.00390625 C12.22326172 -0.00197266 12.22326172 -0.00197266 13.9375 0 C14.97326172 0.00112793 16.00902344 0.00225586 17.07617188 0.00341797 C19.46875 0.1328125 19.46875 0.1328125 20.46875 1.1328125 C20.58884825 4.25195567 20.64425551 7.34992582 20.65820312 10.47021484 C20.66649643 11.45065262 20.67478973 12.43109039 20.68333435 13.4412384 C20.70077862 15.57802054 20.71593331 17.71482227 20.72911072 19.85163498 C20.7500691 23.22988738 20.77709819 26.60804157 20.80578613 29.98623657 C20.86560202 37.16005779 20.91768647 44.33392436 20.96875 51.5078125 C21.02791378 59.81083233 21.09019843 68.11380406 21.16062927 76.4167366 C21.18725828 79.75098392 21.20804237 83.08523587 21.2286377 86.41952515 C21.24523893 88.45855947 21.26211061 90.49759162 21.27929688 92.53662109 C21.2855735 93.93472267 21.2855735 93.93472267 21.29197693 95.36106873 C21.30032059 96.21357712 21.30866425 97.06608551 21.31726074 97.94442749 C21.32241447 98.68517202 21.32756821 99.42591656 21.33287811 100.18910789 C21.40281051 102.35049912 21.40281051 102.35049912 22.46875 105.1328125 C26.43050349 107.90333259 30.30705395 107.08334176 34.91015625 106.71484375 C37.46875 107.1328125 37.46875 107.1328125 39.19140625 109.19921875 C40.64076295 112.52786366 41.55361913 115.71351115 42.34375 119.2578125 C42.62992188 120.47726563 42.91609375 121.69671875 43.2109375 122.953125 C43.46875 126.1328125 43.46875 126.1328125 42.3515625 128 C35.12732951 132.34653022 22.39910382 130.86094986 14.34765625 129.671875 C7.18850483 127.77319209 1.78278988 123.93401867 -2.90625 118.2578125 C-6.58656243 111.1802886 -6.81983451 104.31791809 -6.77416992 96.51000977 C-6.77606827 95.47656937 -6.77796661 94.44312897 -6.77992249 93.37837219 C-6.78360759 89.98524226 -6.77296243 86.59232942 -6.76171875 83.19921875 C-6.76052607 80.83650233 -6.76007397 78.47378543 -6.7603302 76.11106873 C-6.75876952 71.17272959 -6.75050809 66.23446338 -6.73706055 61.29614258 C-6.72000608 54.95157458 -6.71624828 48.60708614 -6.71700573 42.2624979 C-6.7167346 37.39081558 -6.71126369 32.5191508 -6.70400429 27.64747429 C-6.7008134 25.3065803 -6.69884924 22.96568433 -6.69811058 20.62478828 C-6.69595515 17.36644173 -6.68723022 14.10818165 -6.67651367 10.84985352 C-6.67696686 9.87483887 -6.67742004 8.89982422 -6.67788696 7.89526367 C-6.67362198 7.01354996 -6.66935699 6.13183624 -6.66496277 5.22340393 C-6.66328692 4.45303582 -6.66161108 3.68266771 -6.65988445 2.88895512 C-6.37282087 -1.03009283 -3.23235145 0.00351998 0 0 Z " fill="#FEFEFE" transform="translate(673.53125,29.8671875)"/>
<path d="M0 0 C-0.4302337 7.6700283 -1.74231361 14.65896942 -4 22 C-7.92062784 22.84770332 -11.51490327 22.99460727 -15.5 22.875 C-20.10404306 22.84372253 -23.1653139 23.21985257 -27 26 C-28.84434349 28.46115547 -28.84434349 28.46115547 -30 31 C-30.33 31.66 -30.66 32.32 -31 33 C-31.11447104 34.80672387 -31.16682283 36.61752924 -31.18945312 38.42773438 C-31.20617065 39.56231079 -31.22288818 40.69688721 -31.2401123 41.86584473 C-31.25368774 43.09605347 -31.26726318 44.32626221 -31.28125 45.59375 C-31.29965942 46.85135132 -31.31806885 48.10895264 -31.33703613 49.40466309 C-31.3959419 53.43639408 -31.44889745 57.46816468 -31.5 61.5 C-31.56720385 66.80217909 -31.64113598 72.10421014 -31.71875 77.40625 C-31.73232544 78.63645874 -31.74590088 79.86666748 -31.7598877 81.13415527 C-31.77660522 82.26873169 -31.79332275 83.40330811 -31.81054688 84.57226562 C-31.82933899 86.07545349 -31.82933899 86.07545349 -31.84851074 87.60900879 C-32 90 -32 90 -33 92 C-37.12494151 92.05784708 -41.24977944 92.09354407 -45.375 92.125 C-46.550625 92.14175781 -47.72625 92.15851563 -48.9375 92.17578125 C-50.61972656 92.18544922 -50.61972656 92.18544922 -52.3359375 92.1953125 C-53.37282715 92.20578613 -54.4097168 92.21625977 -55.47802734 92.22705078 C-58 92 -58 92 -60 90 C-60.20391726 87.1795086 -60.28316471 84.45680073 -60.2746582 81.63476562 C-60.27976913 80.76961838 -60.28488007 79.90447113 -60.29014587 79.0131073 C-60.30408311 76.14408514 -60.30308217 73.27530205 -60.30078125 70.40625 C-60.3046656 68.4184968 -60.30899972 66.43074444 -60.31376648 64.44299316 C-60.32123736 60.27332877 -60.32093091 56.10374903 -60.31567383 51.93408203 C-60.30987473 46.58029233 -60.32681667 41.22684808 -60.3500185 35.87311554 C-60.36472082 31.76741496 -60.36563239 27.66179828 -60.36250877 23.55607605 C-60.36302364 21.58163264 -60.36829222 19.60718473 -60.37832069 17.63276672 C-60.39060165 14.87669138 -60.38394423 12.12129808 -60.37231445 9.36523438 C-60.37995819 8.54335129 -60.38760193 7.7214682 -60.39547729 6.87467957 C-60.3742218 4.60583496 -60.3742218 4.60583496 -60 1 C-56.3091176 -1.46058827 -54.38892458 -1.23778976 -50 -1.1875 C-48.14375 -1.17783203 -48.14375 -1.17783203 -46.25 -1.16796875 C-43 -1 -43 -1 -40 0 C-38.83203125 2.06640625 -38.83203125 2.06640625 -37.8125 4.5625 C-37.46832031 5.38878906 -37.12414062 6.21507813 -36.76953125 7.06640625 C-36.51558594 7.70449219 -36.26164062 8.34257813 -36 9 C-35.34 9 -34.68 9 -34 9 C-34 8.34 -34 7.68 -34 7 C-25.33725132 -1.07773189 -10.89823659 -7.26549106 0 0 Z " fill="#FDFDFD" transform="translate(183,66)"/>
</svg>
